<svg xmlns="http://www.w3.org/2000/svg" width="1024" height="1024" style="shape-rendering:geometricPrecision;text-rendering:geometricPrecision;image-rendering:optimizeQuality;fill-rule:evenodd;clip-rule:evenodd"><path style="opacity:1" fill="#dfaf8e" d="M160.5-.5h702c68.944 10.10652 118.111 46.7732 147.5 110 6.25 16.668 10.75 33.668 13.5 51v702c-10.11 68.944-46.773 118.111-110 147.5-16.668 6.25-33.668 10.75-51 13.5h-702c-68.9441-10.11-118.1108-46.773-147.5-110-6.24855-16.668-10.74855-33.668-13.5-51v-702C9.60652 91.5559 46.2732 42.3892 109.5 13c16.668-6.24855 33.668-10.74855 51-13.5Z"/><path style="opacity:1" fill="#fbde68" d="M735.5 209.5c-148.403-.332-296.737.002-445 1-3.654.442-7.321.776-11 1 2.822-1.007 5.822-1.84 9-2.5 12.379-.186 24.712-.686 37-1.5 133.936-.003 267.936.164 402 .5 2.865.183 5.531.683 8 1.5Z"/><path style="opacity:1" fill="#fefefc" d="M735.5 209.5v1c2.837 1.902 6.171 2.569 10 2 4.016 1.012 8.016 2.012 12 3 1.436 1.583 3.102 3.083 5 4.5.948.483 1.948.649 3 .5.473 1.406 1.473 2.073 3 2 5.259 2.598 10.259 5.598 15 9 1.254 2.593 2.92 4.927 5 7 .58 2.249 1.913 3.915 4 5 1.333 1 2.667 2 4 3-.073 1.527.594 2.527 2 3v2c.855 3.776 2.522 7.109 5 10 1.406.473 2.073 1.473 2 3 1.422 6.267 3.422 12.267 6 18 0 .667.333 1 1 1 1.32 146.824 1.32 293.491 0 440-1.677 4.045-2.344 8.378-2 13-.764 5.134-2.598 9.8-5.5 14-.494 1.634-.66 3.301-.5 5-1.174 1.014-1.84 2.347-2 4-1.174 1.014-1.84 2.347-2 4-3.187 1.844-5.187 4.511-6 8-.838.342-1.172 1.008-1 2-5.667 3.667-10.333 8.333-14 14-1 .333-1.667 1-2 2-2.319.492-4.319 1.492-6 3-4.035 1.01-7.368 3.01-10 6-2.831.579-5.164 1.912-7 4-5.159 1.3-10.492 2.133-16 2.5-.556.383-.889.883-1 1.5-147.989.988-295.989 1.321-444 1-8.45-2.555-17.116-4.888-26-7-1.333-.333-2.667-.667-4-1-.342-.838-1.008-1.172-2-1-.342-.838-1.008-1.172-2-1-.473-1.406-1.473-2.073-3-2-.342-.838-1.008-1.172-2-1-.762-1.762-2.096-2.762-4-3-.762-1.762-2.096-2.762-4-3-5.695-6.026-11.361-12.026-17-18-.933-2.87-2.6-5.204-5-7-.104-2.203-.77-4.203-2-6-2.084-5.466-4.084-10.799-6-16-1.291-5.889-2.124-11.889-2.5-18-.5-35.998-.667-71.998-.5-108-.167-107.334 0-214.667.5-322 .673-6.104 1.506-12.104 2.5-18 .667-3.333 1.333-6.667 2-10l2-2c1.359-.507 2.359-1.507 3-3 .88-3.113 1.88-6.113 3-9 1.895-4.563 4.895-8.23 9-11 3.715-3.048 7.048-6.381 10-10 3.483-3.239 7.15-6.239 11-9 2.813.475 4.813-.525 6-3h2c3.723-.034 6.723-1.367 9-4 4.91-1.24 9.91-2.073 15-2.5.916-.278 1.582-.778 2-1.5 148.263-.998 296.597-1.332 445-1Z"/><path style="opacity:1" fill="#fffbcf" d="M735.5 210.5c3.54.253 6.873.919 10 2-3.829.569-7.163-.098-10-2Z"/><path style="opacity:1" fill="#f5d45a" d="M757.5 215.5c-3.984-.988-7.984-1.988-12-3-3.127-1.081-6.46-1.747-10-2v-1c1.083-.039 2.083-.373 3-1 5.245 1.816 10.578 3.316 16 4.5 1.071.852 2.071 1.685 3 2.5Z"/><path style="opacity:1" fill="#f3d250" d="M278.5 211.5c-1.572 1.187-3.239 2.187-5 3h-2c1.82-1.948 4.154-2.948 7-3Z"/><path style="opacity:1" fill="#fffccc" d="M290.5 210.5c-.418.722-1.084 1.222-2 1.5-5.09.427-10.09 1.26-15 2.5 1.761-.813 3.428-1.813 5-3h1c3.679-.224 7.346-.558 11-1Z"/><path style="opacity:1" fill="#f3d458" d="M271.5 214.5c-1.43 1.037-3.097 1.704-5 2 1.135-1.713 2.802-2.38 5-2Z"/><path style="opacity:1" fill="#efd766" d="m266.5 216.5-2 2h-2c.787-1.604 2.12-2.271 4-2Z"/><path style="opacity:1" fill="#fffddb" d="M271.5 214.5h2c-2.277 2.633-5.277 3.966-9 4l2-2c1.903-.296 3.57-.963 5-2Z"/><path style="opacity:1" fill="#f5e385" d="M757.5 215.5c2.467.255 4.467 1.255 6 3l2 2c-1.052.149-2.052-.017-3-.5-1.898-1.417-3.564-2.917-5-4.5Z"/><path style="opacity:1" fill="#f2d553" d="M763.5 218.5c1.88-.271 3.213.396 4 2h-2l-2-2Z"/><path style="opacity:1" fill="#f7dd72" d="M262.5 218.5c-1.187 2.475-3.187 3.475-6 3 1.533-1.745 3.533-2.745 6-3Z"/><path style="opacity:1" fill="#fffbbe" d="M765.5 220.5h2c.333.667.667 1.333 1 2-1.527.073-2.527-.594-3-2Z"/><path style="opacity:1" fill="#f5d363" d="M767.5 220.5c6.327 2.22 11.66 5.887 16 11-4.741-3.402-9.741-6.402-15-9-.333-.667-.667-1.333-1-2Z"/><path style="opacity:1" fill="#f5dc71" d="M256.5 221.5c-3.85 2.761-7.517 5.761-11 9-.891.61-1.891.943-3 1 3.826-4.49 8.493-7.823 14-10Z"/><path style="opacity:1" fill="#f5d96c" d="M783.5 231.5c3.734 2.731 6.734 6.064 9 10-1.333-1-2.667-2-4-3-2.08-2.073-3.746-4.407-5-7Z"/><path style="opacity:1" fill="#fffbd6" d="M749.5 247.5c-1.333-.333-2.667-.667-4-1-6.657-4.164-13.991-6.664-22-7.5-142.35-.825-284.684-.659-427 .5-1.617.538-3.284.871-5 1 2.853-1.377 5.853-2.544 9-3.5 141-.667 282-.667 423 0 3.476 1.254 7.142 1.921 11 2 3.661 2.328 7.661 3.828 12 4.5 1.981.063 3.648-.604 5-2l1 1c-1.778 1.226-2.778 2.893-3 5Z"/><path style="opacity:1" fill="#fffbd2" d="M245.5 230.5c-2.952 3.619-6.285 6.952-10 10 1.927-3.267 4.261-6.267 7-9 1.109-.057 2.109-.39 3-1Z"/><path style="opacity:1" fill="#f5c743" d="M745.5 246.5c-5.892-2.108-11.892-3.942-18-5.5-143.666-.5-287.333-.667-431-.5v-1c142.316-1.159 284.65-1.325 427-.5 8.009.836 15.343 3.336 22 7.5Z"/><path style="opacity:1" fill="#dfaf8e" d="M296.5 240.5c143.667-.167 287.334 0 431 .5 6.108 1.558 12.108 3.392 18 5.5 1.836 2.088 4.169 3.421 7 4 .762 1.762 2.096 2.762 4 3 2.962 3.464 6.129 6.797 9.5 10 2.61 4.242 5.443 8.242 8.5 12 3.635 9.302 6.135 18.969 7.5 29 .667 46.333.667 92.667 0 139-1.372 1.41-2.205 3.077-2.5 5-7.735 4.177-13.235 2.177-16.5-6-.389-44.674-.222-89.341.5-134-.751-5.755-1.917-11.422-3.5-17-1.276-3.099-3.11-5.766-5.5-8-5.106-9.106-12.44-15.772-22-20-3.585-2.234-7.585-3.734-12-4.5-138.667-.667-277.333-.667-416 0-2.544 1.092-5.211 1.759-8 2-.556.383-.889.883-1 1.5-3.191.592-6.191 1.759-9 3.5-3.908 2.746-7.241 5.912-10 9.5-6.811 5.74-10.811 13.074-12 22-1.723 2.28-2.389 4.947-2 8-.891.761-1.558 1.761-2 3-.24 43.631.094 87.298 1 131-1.251 10.292-6.584 13.292-16 9-.572-1.755-1.406-3.422-2.5-5-.167-14.333-.333-28.667-.5-43 .392-32.922.559-65.922.5-99 .772-4.691 1.605-9.358 2.5-14 2.323-5.291 4.657-10.624 7-16 1.406-.473 2.073-1.473 2-3 5.469-6.302 11.469-12.135 18-17.5 7.8-4.388 15.8-7.888 24-10.5Z"/><path style="opacity:1" fill="#fefed2" d="M788.5 238.5c1.333 1 2.667 2 4 3v2c-2.087-1.085-3.42-2.751-4-5Z"/><path style="opacity:1" fill="#f2d667" d="M792.5 241.5c2.087 1.085 3.42 2.751 4 5-1.333-1-2.667-2-4-3v-2Z"/><path style="opacity:1" fill="#f2d462" d="M242.5 231.5c-2.739 2.733-5.073 5.733-7 9-4.105 2.77-7.105 6.437-9 11h-1c3.994-7.175 8.994-13.675 15-19.5.594-.464 1.261-.631 2-.5Z"/><path style="opacity:1" fill="#f2cf59" d="M745.5 246.5c1.333.333 2.667.667 4 1 1.644.31 2.644 1.31 3 3-2.831-.579-5.164-1.912-7-4Z"/><path style="opacity:1" fill="#efd160" d="M796.5 246.5c1.406.473 2.073 1.473 2 3-1.406-.473-2.073-1.473-2-3Z"/><path style="opacity:1" fill="#f4ce5b" d="M296.5 239.5v1c-8.2 2.612-16.2 6.112-24 10.5-6.531 5.365-12.531 11.198-18 17.5l3.5-7c9.501-9.666 20.667-16.666 33.5-21 1.716-.129 3.383-.462 5-1Z"/><path style="opacity:1" fill="#f0ca52" d="M752.5 250.5c1.904.238 3.238 1.238 4 3-1.904-.238-3.238-1.238-4-3Z"/><path style="opacity:1" fill="#f7d363" d="M798.5 249.5c1.406.473 2.073 1.473 2 3-.667-.333-1.333-.667-2-1v-2Z"/><path style="opacity:1" fill="#f2d15d" d="M225.5 251.5c.073 1.527-.594 2.527-2 3-.073-1.527.594-2.527 2-3Z"/><path style="opacity:1" fill="#f4ce4f" d="M756.5 253.5c3.603 2.263 6.936 4.93 10 8 1.311 2.635 2.978 4.969 5 7 .763 1.868 1.763 3.535 3 5v2c-3.057-3.758-5.89-7.758-8.5-12-3.371-3.203-6.538-6.536-9.5-10Z"/><path style="opacity:1" fill="#fffbd7" d="M798.5 251.5c.667.333 1.333.667 2 1 1.523 2.845 2.523 5.845 3 9-2.478-2.891-4.145-6.224-5-10Z"/><path style="opacity:1" fill="#f9e486" d="M223.5 254.5c.343 1.983-.324 3.317-2 4 .16-1.653.826-2.986 2-4Z"/><path style="opacity:1" fill="#f2c63a" d="M732.5 263.5c-2.361-.174-4.694-.507-7-1-1.068-.934-2.401-1.268-4-1-1.452-.802-3.118-1.302-5-1.5-136.667-.667-273.333-.667-410 0-1.237.232-2.237.732-3 1.5-2.706.075-5.373.408-8 1 .111-.617.444-1.117 1-1.5 2.789-.241 5.456-.908 8-2 138.667-.667 277.333-.667 416 0 4.415.766 8.415 2.266 12 4.5Z"/><path style="opacity:1" fill="#fffdde" d="M225.5 251.5h1c-1.12 2.887-2.12 5.887-3 9-.641 1.493-1.641 2.493-3 3 .801-1.542 1.134-3.208 1-5 1.676-.683 2.343-2.017 2-4 1.406-.473 2.073-1.473 2-3Z"/><path style="opacity:1" fill="#fce69e" d="M721.5 261.5c-139.34-1.33-278.673-1.33-418 0 .763-.768 1.763-1.268 3-1.5 136.667-.667 273.333-.667 410 0 1.882.198 3.548.698 5 1.5Z"/><path style="opacity:1" fill="#fffee2" d="M721.5 261.5c1.599-.268 2.932.066 4 1-4.714.147-9.381-.186-14-1h-389c-9.829-.117-19.495.883-29 3l2-2c2.627-.592 5.294-.925 8-1 139.327-1.33 278.66-1.33 418 0Z"/><path style="opacity:1" fill="#fefef5" d="M322.5 261.5h389c-11.841.749-23.841 1.415-36 2-117.823-.659-235.49-1.326-353-2Z"/><path style="opacity:1" fill="#f6d968" d="M221.5 258.5c.134 1.792-.199 3.458-1 5l-2 2c.207-2.741 1.207-5.074 3-7Z"/><path style="opacity:1" fill="#f2d05d" d="M800.5 252.5c5.177 6.704 8.51 14.371 10 23-1.473-3.751-3.14-7.417-5-11 .073-1.527-.594-2.527-2-3-.477-3.155-1.477-6.155-3-9Z"/><path style="opacity:1" fill="#fff9c4" d="M725.5 262.5c2.306.493 4.639.826 7 1 2 1.667 4 3.333 6 5-4.386-2.096-8.719-4.096-13-6Z"/><path style="opacity:1" fill="#fffbcb" d="M766.5 261.5c2.764 1.448 4.431 3.781 5 7-2.022-2.031-3.689-4.365-5-7Z"/><path style="opacity:1" fill="#f2cd57" d="m295.5 262.5-2 2c-6.037 2.682-11.371 6.349-16 11h-1c2.759-3.588 6.092-6.754 10-9.5 2.809-1.741 5.809-2.908 9-3.5Z"/><path style="opacity:1" fill="#fffdcc" d="M805.5 264.5c1.86 3.583 3.527 7.249 5 11 .493 2.306.826 4.639 1 7-2.578-5.733-4.578-11.733-6-18Z"/><path style="opacity:1" fill="#fffcd0" d="M252.5 269.5v2l-4 4c.184-2.837 1.518-4.837 4-6Z"/><path style="opacity:1" fill="#edc349" d="M254.5 268.5c.073 1.527-.594 2.527-2 3v-2c.667-.333 1.333-.667 2-1Z"/><path style="opacity:1" fill="#f2d05c" d="M732.5 263.5c9.56 4.228 16.894 10.894 22 20-.667-.333-1.333-.667-2-1-3.667-5.667-8.333-10.333-14-14-2-1.667-4-3.333-6-5Z"/><path style="opacity:1" fill="#f8e17b" d="M218.5 265.5c-.667 3.333-1.333 6.667-2 10l-2 2c.517-3.722 1.35-7.388 2.5-11 .383-.556.883-.889 1.5-1Z"/><path style="opacity:1" fill="#fffdca" d="M774.5 273.5c3.175 2.492 4.841 5.826 5 10-1.299-2.895-2.965-5.562-5-8v-2Z"/><path style="opacity:1" fill="#f0cd50" d="M810.5 275.5c1.723 2.28 2.389 4.947 2 8-.667 0-1-.333-1-1-.174-2.361-.507-4.694-1-7Z"/><path style="opacity:1" fill="#fffccd" d="M276.5 275.5h1c-.209 1.422-.709 2.755-1.5 4-2.092 1.975-3.925 3.975-5.5 6 1.575-3.578 3.575-6.911 6-10Z"/><path style="opacity:1" fill="#f0c64f" d="M252.5 271.5c-2.343 5.376-4.677 10.709-7 16 .595-4.115 1.595-8.115 3-12l4-4Z"/><path style="opacity:1" fill="#f2ca4f" d="M276.5 275.5c-2.425 3.089-4.425 6.422-6 10-1.174 1.014-1.84 2.347-2 4-1.333 2.667-2.667 5.333-4 8 1.189-8.926 5.189-16.26 12-22Z"/><path style="opacity:1" fill="#fffbc2" d="M491.5 284.5c-2.667.667-5.333 1.333-8 2-3.698.052-7.365.386-11 1 1.1-1.058 2.434-1.892 4-2.5 4.989-.499 9.989-.666 15-.5Z"/><path style="opacity:1" fill="#efca5c" d="M491.5 284.5h40v1c-10.181-.327-20.181.006-30 1-5.82-.157-11.82-.157-18 0 2.667-.667 5.333-1.333 8-2Z"/><path style="opacity:1" fill="#fffddd" d="M752.5 282.5c.667.333 1.333.667 2 1 .667 2 1.333 4 2 6-1.554-1.193-3.221-2.36-5-3.5.837-1.011 1.17-2.178 1-3.5Z"/><path style="opacity:1" fill="#dfaf8e" d="M501.5 286.5c18.063-.432 36.063.235 54 2 3.007 1.675 6.34 2.341 10 2 2.523 1.351 5.189 2.517 8 3.5 1.973.495 3.973.662 6 .5 1.49 1.78 3.49 2.446 6 2 9.849 4.333 19.849 8.666 30 13 4.516 3.427 9.516 6.093 15 8 3.604 3.767 7.938 6.434 13 8 1.796 2.4 4.13 4.067 7 5 1.873 2.949 4.539 4.949 8 6 2.069 3.073 4.736 5.406 8 7 32.132 29.47 54.632 64.47 67.5 105 9.572 33.104 12.238 66.771 8 101-2.343 9.898-4.176 19.898-5.5 30-.617.111-1.117.444-1.5 1-.414 4.156-1.414 8.156-3 12-3.386 7.895-6.553 15.895-9.5 24-7.587 12.965-15.753 25.632-24.5 38-12.397 13.898-25.564 26.898-39.5 39-5.936 2.96-11.269 6.627-16 11-5.505 2.249-10.505 5.249-15 9-1.653.16-2.986.826-4 2-6.274 2.139-12.274 4.805-18 8-2.053-.098-3.72.569-5 2-1.903.296-3.57.963-5 2-5.184 1.442-10.184 3.108-15 5-55.47 13.468-109.803 10.135-163-10-10.303-5.486-20.637-10.986-31-16.5-9.029-6.177-18.029-12.343-27-18.5-8.254-7.917-16.587-15.917-25-24-9.743-12.486-18.743-25.486-27-39-.25-2.174-1.25-3.841-3-5-.207-2.741-1.207-5.074-3-7-2.65-7.262-5.65-14.262-9-21-.727-4.918-2.06-9.585-4-14 .163-2.357-.003-4.69-.5-7-.383-.556-.883-.889-1.5-1 .156-4.264-.511-8.264-2-12v-1c-1.287-11.844-2.287-23.678-3-35.5.774-14.136 1.774-28.303 3-42.5 3.64-17.156 8.307-34.156 14-51 4.424-7.584 8.091-15.584 11-24 2.828-3.175 4.828-6.842 6-11 2.088-1.836 3.421-4.169 4-7 1.153-6.153 1.32-12.486.5-19-2.905-3.013-3.239-6.347-1-10 4.318-3.249 6.985-7.582 8-13 1.406-2.244 3.239-3.91 5.5-5 11.671.167 23.338 0 35-.5 5.897-5.406 11.897-10.572 18-15.5 1.934-.61 3.601-1.61 5-3 15.516-7.724 31.183-15.057 47-22 15.226-4.529 30.559-8.195 46-11 6.18-.157 12.18-.157 18 0Z"/><path style="opacity:1" fill="#f4c641" d="M501.5 286.5c9.819-.994 19.819-1.327 30-1 8.329-.508 16.329.492 24 3-17.937-1.765-35.937-2.432-54-2Z"/><path style="opacity:1" fill="#fffacd" d="M531.5 285.5v-1c10.106-.383 20.106.45 30 2.5 3.101.638 5.768 1.805 8 3.5h-4c-3.044-1.511-6.378-2.178-10-2-7.671-2.508-15.671-3.508-24-3Z"/><path style="opacity:1" fill="#f3ca49" d="M483.5 286.5c-15.441 2.805-30.774 6.471-46 11 .333-.667.667-1.333 1-2 4.538-1.02 8.871-2.353 13-4 4.947-.217 9.614-1.217 14-3 2.107-.968 4.441-1.302 7-1 3.635-.614 7.302-.948 11-1Z"/><path style="opacity:1" fill="#f0c745" d="M555.5 288.5c3.622-.178 6.956.489 10 2-3.66.341-6.993-.325-10-2Z"/><path style="opacity:1" fill="#fffac6" d="M465.5 288.5c-4.386 1.783-9.053 2.783-14 3 4.246-2.384 8.912-3.384 14-3Z"/><path style="opacity:1" fill="#f1c855" d="M565.5 290.5h5c3 1.333 6 2.667 9 4-2.027.162-4.027-.005-6-.5-2.811-.983-5.477-2.149-8-3.5Z"/><path style="opacity:1" fill="#fffacc" d="M570.5 290.5c8.43 2.052 16.763 4.385 25 7 1.493.641 2.493 1.641 3 3-4.334-1.334-8.667-2.668-13-4-1.714-1.238-3.714-1.905-6-2-3-1.333-6-2.667-9-4Z"/><path style="opacity:1" fill="#fffdd9" d="M268.5 289.5c.087 4.542-1.247 8.542-4 12v-4c1.333-2.667 2.667-5.333 4-8Z"/><path style="opacity:1" fill="#f3c743" d="M579.5 294.5c2.286.095 4.286.762 6 2-2.51.446-4.51-.22-6-2Z"/><path style="opacity:1" fill="#fffad0" d="M438.5 295.5c-.333.667-.667 1.333-1 2-3.579-.184-6.913.483-10 2 3.115-2.517 6.782-3.851 11-4Z"/><path style="opacity:1" fill="#f4c649" d="M585.5 296.5c4.333 1.332 8.666 2.666 13 4 5.031 2.845 10.364 5.178 16 7 .333.667.667 1.333 1 2-10.151-4.334-20.151-8.667-30-13Z"/><path style="opacity:1" fill="#fff9c3" d="M427.5 299.5c-1.681 1.508-3.681 2.508-6 3 1.284-2.114 3.284-3.114 6-3Z"/><path style="opacity:1" fill="#fffed6" d="M779.5 283.5c.651.591 1.318 1.257 2 2 .672 3.397 1.505 6.73 2.5 10 .167 25.167.333 50.333.5 75.5 0 25.509-.667 50.676-2 75.5 1.157-48.959 1.324-97.959.5-147-.849-5.441-2.016-10.774-3.5-16Z"/><path style="opacity:1" fill="#f0c74d" d="M264.5 297.5v4c-.667 1.333-1.333 2.667-2 4-.389-3.053.277-5.72 2-8Z"/><path style="opacity:1" fill="#f5d571" d="M214.5 277.5c-.358 4.009-.858 8.009-1.5 12-.5 29.665-.667 59.331-.5 89h-1c-.985-27.994-1.151-55.994-.5-84 .605-5.927 1.771-11.594 3.5-17Z"/><path style="opacity:1" fill="#f6ce58" d="M437.5 297.5c-15.817 6.943-31.484 14.276-47 22 2-1.667 4-3.333 6-5 3.866-1.764 7.533-3.764 11-6 4.545-2.185 9.212-4.185 14-6 2.319-.492 4.319-1.492 6-3 3.087-1.517 6.421-2.184 10-2Z"/><path style="opacity:1" fill="#fffcd0" d="M264.5 301.5c.167 47.668 0 95.334-.5 143-.383.556-.883.889-1.5 1v-140c.667-1.333 1.333-2.667 2-4Z"/><path style="opacity:1" fill="#fffddf" d="M407.5 308.5c-3.467 2.236-7.134 4.236-11 6-.219-1.175.114-2.175 1-3 3.179-1.594 6.512-2.594 10-3Z"/><path style="opacity:1" fill="#fff9ca" d="M614.5 307.5c4.983 1.415 9.316 3.748 13 7-3.85-2.06-7.85-3.727-12-5-.333-.667-.667-1.333-1-2Z"/><path style="opacity:1" fill="#f1ca4d" d="M615.5 309.5c4.15 1.273 8.15 2.94 12 5 1.194.772 2.194 1.772 3 3-5.484-1.907-10.484-4.573-15-8Z"/><path style="opacity:1" fill="#fefde7" d="M396.5 314.5c-2 1.667-4 3.333-6 5-2.433-.227-4.099.773-5 3h-2c1.382-3.026 2.715-6.026 4-9 1.992-.172 3.658.495 5 2 1.236-.746 2.57-1.079 4-1Z"/><path style="opacity:1" fill="#f2d15a" d="M390.5 319.5c-1.399 1.39-3.066 2.39-5 3 .901-2.227 2.567-3.227 5-3Z"/><path style="opacity:1" fill="#fffede" d="M383.5 322.5c-2.69 2.685-5.69 5.018-9 7v-3h3v-3c2.065-.017 4.065-.35 6-1Z"/><path style="opacity:1" fill="#f3ca51" d="M630.5 317.5c4.843 1.918 9.177 4.584 13 8-5.062-1.566-9.396-4.233-13-8Z"/><path style="opacity:1" fill="#f3ce52" d="M643.5 325.5c1.667.667 3.333 1.333 5 2 .667 1 1.333 2 2 3-2.87-.933-5.204-2.6-7-5Z"/><path style="opacity:1" fill="#f5cf58" d="M774.5 275.5c2.035 2.438 3.701 5.105 5 8 1.484 5.226 2.651 10.559 3.5 16 .824 49.041.657 98.041-.5 147-1 .667-2 1.333-3 2 .295-1.923 1.128-3.59 2.5-5 .667-46.333.667-92.667 0-139-1.365-10.031-3.865-19.698-7.5-29Z"/><path style="opacity:1" fill="#fff8c0" d="M648.5 327.5c2.249.58 3.915 1.913 5 4-1.109-.057-2.109-.39-3-1-.667-1-1.333-2-2-3Z"/><path style="opacity:1" fill="#f2c64b" d="M650.5 330.5c.891.61 1.891.943 3 1 1.86 1.439 3.527 3.105 5 5-3.461-1.051-6.127-3.051-8-6Z"/><path style="opacity:1" fill="#fffed6" d="M248.5 275.5c-1.405 3.885-2.405 7.885-3 12-1.798 2.531-2.965 5.531-3.5 9-.667 49.667-.667 99.333 0 149 1.039 1.21 2.206 2.21 3.5 3 .333.667.667 1.333 1 2-2.216-.703-4.049-2.036-5.5-4-.667-51-.667-102 0-153 1.781-4.512 3.281-9.178 4.5-14 .557-1.832 1.557-3.165 3-4Z"/><path style="opacity:1" fill="#fef5ba" d="M367.5 335.5c-.111.617-.444 1.117-1 1.5-10.995.5-21.995.667-33 .5 11.204-.708 22.538-1.374 34-2Z"/><path style="opacity:1" fill="#f2c945" d="M383.5 322.5h2c-6.103 4.928-12.103 10.094-18 15.5-11.662.5-23.329.667-35 .5-.667 0-1-.333-1-1h2c11.005.167 22.005 0 33-.5.556-.383.889-.883 1-1.5 2.308-1.971 4.642-3.971 7-6 3.31-1.982 6.31-4.315 9-7Z"/><path style="opacity:1" fill="#fffac2" d="M662.5 338.5c2.589.919 4.589 2.586 6 5h-2c-1.333-1.667-2.667-3.333-4-5Z"/><path style="opacity:1" fill="#f1c953" d="M658.5 336.5c1.562.233 2.895.9 4 2 1.333 1.667 2.667 3.333 4 5-3.264-1.594-5.931-3.927-8-7Z"/><path style="opacity:1" fill="#fffccf" d="M668.5 343.5c3 1 5 3 6 6-2.333-1.667-4.333-3.667-6-6Z"/><path style="opacity:1" fill="#f3cf5a" d="M331.5 337.5c0 .667.333 1 1 1-2.261 1.09-4.094 2.756-5.5 5-1.015 5.418-3.682 9.751-8 13-2.239 3.653-1.905 6.987 1 10 .82 6.514.653 12.847-.5 19 .166-6.009-.001-12.009-.5-18-3.265-4.76-3.099-9.426.5-14 3.248-2.884 5.082-6.55 5.5-11 1.777-2.29 3.944-3.957 6.5-5Z"/><path style="opacity:1" fill="#eec849" d="M559.5 354.5c-12.699.105-25.366.772-38 2 6.073-1.648 12.407-2.481 19-2.5 6.514-.82 12.847-.653 19 .5Z"/><path style="opacity:1" fill="#f0cb4a" d="M559.5 354.5c5.676-.166 11.343.001 17 .5 1.558.21 2.891.71 4 1.5-7.177-.342-14.177-1.009-21-2Z"/><path style="opacity:1" fill="#fffdd9" d="M319.5 353.5c-3.599 4.574-3.765 9.24-.5 14 .499 5.991.666 11.991.5 18h-1c.329-5.706-.005-11.372-1-17-.978-.477-1.811-1.143-2.5-2 .021-3.509-.812-6.675-2.5-9.5 2.146-1.602 4.48-2.768 7-3.5Z"/><path style="opacity:1" fill="#fffdd2" d="M559.5 354.5c6.823.991 13.823 1.658 21 2 1.667.667 3.333 1.333 5 2-11.139-.909-22.306-1.576-33.5-2-12.329-.073-24.496.594-36.5 2 2-.667 4-1.333 6-2 12.634-1.228 25.301-1.895 38-2Z"/><path style="opacity:1" fill="#fad765" d="M754.5 283.5c2.39 2.234 4.224 4.901 5.5 8 1.583 5.578 2.749 11.245 3.5 17-.722 44.659-.889 89.326-.5 134 3.265 8.177 8.765 10.177 16.5 6-.667 1-1.333 2-2 3-6.635 1.548-11.635-.452-15-6-.824-47.959-1.324-95.959-1.5-144-.232-1.237-.732-2.237-1.5-3 .575-3.655-.425-6.655-3-9-.667-2-1.333-4-2-6Z"/><path style="opacity:1" fill="#fefefc" d="M585.5 358.5c5.269 2.641 10.936 4.308 17 5h1c1.18 2.413 3.18 3.413 6 3 1.681 1.508 3.681 2.508 6 3 2.47.154 4.47 1.154 6 3 .986 1.908 2.652 2.908 5 3 4.433 2.584 8.766 5.418 13 8.5 6.229 6.397 12.562 12.564 19 18.5 3.615 6.277 7.615 12.277 12 18-.073 1.527.594 2.527 2 3 .667 2 1.333 4 2 6 .39 5.437 2.39 10.104 6 14-.162 2.027.005 4.027.5 6 .739 2.389 1.905 4.389 3.5 6 1.424 2.015 2.09 4.348 2 7v2h-68c.38-2.198-.287-3.865-2-5-1.241-2.95-2.574-5.95-4-9-.108-2.283-.941-4.283-2.5-6-.671-.752-1.504-1.086-2.5-1v-1c-.942-3.59-2.942-6.257-6-8-1-.333-1.667-1-2-2-.863-1.44-.863-2.774 0-4-.774-1.211-1.607-1.211-2.5 0-2.845-4.468-7.011-6.801-12.5-7-5.912-2.745-11.912-5.078-18-7-4.451-1.327-9.284-1.994-14.5-2-4.833.167-9.667.333-14.5.5-3.147.956-6.147 2.123-9 3.5-7.688 3.031-14.688 7.364-21 13-1.617.538-3.284.871-5 1v3c-3.568.259-4.901 2.259-4 6-2.009 3.339-4.009 6.672-6 10-1.574.437-2.741 1.437-3.5 3-1.131 2.945-1.964 5.945-2.5 9-.548 2.126-1.215 4.126-2 6-1.536 1.525-2.536 3.525-3 6-1.813 8.915-2.813 17.915-3 27-.617.111-1.117.444-1.5 1-.823 8.51-.657 16.844.5 25 0 .667.333 1 1 1-.166 9.339 0 18.673.5 28 .329 4.173 1.496 7.84 3.5 11-.323 3.726.011 7.393 1 11 1.966 5.589 4.299 10.922 7 16 1.333 2 2.667 4 4 6v2c-.353 3.959 1.313 6.626 5 8 .58 2.249 1.913 3.915 4 5 8.111 8.046 17.444 14.046 28 18 .111.617.444 1.117 1 1.5 1.973.495 3.973.662 6 .5.891.61 1.891.943 3 1 8.156 1.157 16.49 1.323 25 .5 2.692-.743 5.025-1.91 7-3.5l2-2c4.423-1.376 8.756-3.043 13-5 3.064-3.07 6.397-5.737 10-8 1.981-1.644 3.981-3.31 6-5 2.74 3.777 3.407 3.277 2-1.5 1.118-2.059 1.785-4.226 2-6.5 3.54-2.225 5.206-5.558 5-10 1.951-1.98 3.451-4.313 4.5-7 .495-1.973.662-3.973.5-6 .789-.283 1.456-.783 2-1.5 21.331-.5 42.664-.667 64-.5-.017 2.065-.35 4.065-1 6-1.251 4.588-2.251 9.255-3 14-3.332 6.63-6.665 13.296-10 20-3.229 2.516-5.229 5.85-6 10-.333 1.333-.667 2.667-1 4-3.04 3.039-5.706 6.373-8 10-1.586.913-3.086.913-4.5 0-.662 2.917-2.495 4.25-5.5 4-.493 2.306-.826 4.639-1 7 0 .667-.333 1-1 1-3.842.082-5.842 2.082-6 6-2.055 2.055-4.388 3.721-7 5-2.569.238-4.235 1.571-5 4-1 .333-1.667 1-2 2-4.665 1.328-8.665 3.661-12 7-4.395.908-8.729 2.241-13 4-3.946.382-7.612 1.382-11 3-7.609 1.111-15.275 2.277-23 3.5-5.167.167-10.333.333-15.5.5-13.962-.225-27.795-1.558-41.5-4-5.371-.601-10.371-1.934-15-4-3.926-2.882-8.259-5.215-13-7-2.546-2.932-5.88-4.266-10-4-.473-1.406-1.473-2.073-3-2-2.667-1.333-5.333-2.667-8-4-.333-.667-.667-1.333-1-2-1.085-2.087-2.751-3.42-5-4-1.411-2.414-3.411-4.081-6-5-8.484-6.81-15.484-14.81-21-24-1.587-4.183-3.921-7.85-7-11-3.161-4.989-5.828-10.322-8-16-4.286-16.186-8.286-32.186-12-48-.701-6.567-1.368-13.233-2-20-.152-15.383.515-30.716 2-46 1.902-2.837 2.569-6.171 2-10 1.585-2.331 2.751-4.997 3.5-8 .497-2.646.664-5.313.5-8v-4c.667 0 1-.333 1-1 1.507-1.789 2.84-3.789 4-6 .974-2.243 1.308-4.576 1-7 .972-2.937 2.305-5.603 4-8 3.595-3.515 5.928-7.849 7-13 2.893-5.888 6.56-11.222 11-16 1.517-.011 2.684-.677 3.5-2 2.08-2.565 3.913-5.232 5.5-8 3.936-2.266 7.269-5.266 10-9 1.411-2.414 3.411-4.081 6-5 2.193-1.18 4.526-2.18 7-3 .886-.825 1.219-1.825 1-3 2.466-.798 4.466-2.131 6-4 1.681-1.508 3.681-2.508 6-3 2.605-.121 4.605-1.121 6-3 2.027.162 4.027-.005 6-.5 3.057-.916 5.724-2.416 8-4.5 3.492.054 6.492-.946 9-3 2.687.164 5.354-.003 8-.5.556-.383.889-.883 1-1.5 12.004-1.406 24.171-2.073 36.5-2 11.194.424 22.361 1.091 33.5 2Z"/><path style="opacity:1" fill="#e8c74b" d="M521.5 356.5c-2 .667-4 1.333-6 2h-4c3.007-1.675 6.34-2.341 10-2Z"/><path style="opacity:1" fill="#f1c64c" d="M580.5 356.5c3.317.281 6.483.281 9.5 0 3.373 2.105 6.873 3.772 10.5 5-5.042-.792-10.042-1.792-15-3-1.667-.667-3.333-1.333-5-2Z"/><path style="opacity:1" fill="#fffddd" d="m679.5 354.5 7 3.5c1.361 1.584 2.028 3.418 2 5.5-3.228-2.806-6.228-5.806-9-9Z"/><path style="opacity:1" fill="#fffed6" d="M759.5 298.5c.768.763 1.268 1.763 1.5 3 .176 48.041.676 96.041 1.5 144-.617-.111-1.117-.444-1.5-1-.186-48.689-.686-97.355-1.5-146Z"/><path style="opacity:1" fill="#efc949" d="M511.5 358.5c-1.667.667-3.333 1.333-5 2-2.961.823-5.961 1.49-9 2 4.259-2.446 8.926-3.779 14-4Z"/><path style="opacity:1" fill="#fffbca" d="M511.5 358.5h4c-.111.617-.444 1.117-1 1.5-2.646.497-5.313.664-8 .5 1.667-.667 3.333-1.333 5-2Z"/><path style="opacity:1" fill="#fefbc7" d="M585.5 358.5c4.958 1.208 9.958 2.208 15 3l2 2c-6.064-.692-11.731-2.359-17-5Z"/><path style="opacity:1" fill="#fffcc4" d="M506.5 360.5c-2.508 2.054-5.508 3.054-9 3v-1c3.039-.51 6.039-1.177 9-2Z"/><path style="opacity:1" fill="#efc84e" d="M600.5 361.5c4.762.172 8.762 1.838 12 5h-3c-1.681-1.508-3.681-2.508-6-3h-1l-2-2Z"/><path style="opacity:1" fill="#f8ce49" d="M358.5 365.5c1.527-.073 2.527.594 3 2-1.527.073-2.527-.594-3-2Z"/><path style="opacity:1" fill="#fffbce" d="M603.5 363.5c2.319.492 4.319 1.492 6 3-2.82.413-4.82-.587-6-3Z"/><path style="opacity:1" fill="#fef8cb" d="M349.5 366.5c-.652 1.225-1.819 1.892-3.5 2-3.473-.663-6.973-.996-10.5-1 .634-1.447 1.801-2.113 3.5-2 3.399 1.898 6.899 2.231 10.5 1Z"/><path style="opacity:1" fill="#fefef6" d="M358.5 365.5c.473 1.406 1.473 2.073 3 2 1.726 2.32 2.393 4.987 2 8 .073 1.527-.594 2.527-2 3-2.737.099-5.404-.235-8-1s-5.263-1.099-8-1c-3.667 1.333-7.333 1.333-11 0-.592-2.627-.925-5.294-1-8 .342-.838 1.008-1.172 2-1 3.527.004 7.027.337 10.5 1 1.681-.108 2.848-.775 3.5-2 2.787-.977 5.787-1.31 9-1Z"/><path style="opacity:1" fill="#f0c94c" d="M358.5 365.5c-3.213-.31-6.213.023-9 1-3.601 1.231-7.101.898-10.5-1-1.699-.113-2.866.553-3.5 2-.992-.172-1.658.162-2 1-.667.333-1.333.667-2 1 2.188-4.61 5.855-6.11 11-4.5l3 1.5c4.323-2.135 8.656-2.469 13-1Z"/><path style="opacity:1" fill="#f3cb52" d="M497.5 362.5v1c-4.922 1.136-9.589 2.803-14 5-2.467.255-4.467 1.255-6 3-2.319.492-4.319 1.492-6 3h-2c8.335-6.119 17.668-10.119 28-12Z"/><path style="opacity:1" fill="#fffddb" d="M497.5 363.5c-2.276 2.084-4.943 3.584-8 4.5-1.973.495-3.973.662-6 .5 4.411-2.197 9.078-3.864 14-5Z"/><path style="opacity:1" fill="#fffbc6" d="M609.5 366.5h3c1.194.772 2.194 1.772 3 3-2.319-.492-4.319-1.492-6-3Z"/><path style="opacity:1" fill="#f3c749" d="M612.5 366.5c4.433.714 8.1 2.714 11 6h-2c-1.53-1.846-3.53-2.846-6-3-.806-1.228-1.806-2.228-3-3Z"/><path style="opacity:1" fill="#fffeda" d="M216.5 275.5c-.994 5.896-1.827 11.896-2.5 18-.5 107.333-.667 214.666-.5 322h-1v-237c-.167-29.669 0-59.335.5-89 .642-3.991 1.142-7.991 1.5-12l2-2Z"/><path style="opacity:1" fill="#f3c847" d="M331.5 369.5c.174 2.361.507 4.694 1 7-1.493-.812-2.16-2.145-2-4 .02-1.226.353-2.226 1-3Z"/><path style="opacity:1" fill="#fff8c8" d="M483.5 368.5c-1.395 1.879-3.395 2.879-6 3 1.533-1.745 3.533-2.745 6-3Z"/><path style="opacity:1" fill="#fad663" d="M245.5 287.5c-.895 4.642-1.728 9.309-2.5 14 .059 33.078-.108 66.078-.5 99 .167 14.333.333 28.667.5 43 1.094 1.578 1.928 3.245 2.5 5-1.294-.79-2.461-1.79-3.5-3-.667-49.667-.667-99.333 0-149 .535-3.469 1.702-6.469 3.5-9Z"/><path style="opacity:1" fill="#fffccf" d="M621.5 372.5h2c.342.838 1.008 1.172 2 1 .333.667.667 1.333 1 2-2.348-.092-4.014-1.092-5-3Z"/><path style="opacity:1" fill="#fae788" d="M361.5 367.5c2.412.194 3.412 1.527 3 4 .268 1.599-.066 2.932-1 4 .393-3.013-.274-5.68-2-8Z"/><path style="opacity:1" fill="#f0c949" d="M364.5 371.5c1.113 1.446 1.28 3.113.5 5-.422 1.926-1.589 2.926-3.5 3v-1c1.406-.473 2.073-1.473 2-3 .934-1.068 1.268-2.401 1-4Z"/><path style="opacity:1" fill="#ffface" d="M469.5 374.5h2c-1.534 1.869-3.534 3.202-6 4 1.027-1.694 2.361-3.027 4-4Z"/><path style="opacity:1" fill="#fffbd9" d="M333.5 368.5c.075 2.706.408 5.373 1 8 3.667 1.333 7.333 1.333 11 0-1.291 1.815-3.124 2.815-5.5 3-2.665-.673-5.165-1.673-7.5-3-.493-2.306-.826-4.639-1-7 .667-.333 1.333-.667 2-1Z"/><path style="opacity:1" fill="#f4cd54" d="M332.5 376.5c2.335 1.327 4.835 2.327 7.5 3 2.376-.185 4.209-1.185 5.5-3 2.737-.099 5.404.235 8 1 .333.667.667 1.333 1 2-1.788-.471-3.622-.804-5.5-1-4.286 1.81-8.786 2.31-13.5 1.5-1.563-.759-2.563-1.926-3-3.5Z"/><path style="opacity:1" fill="#fae180" d="M353.5 377.5c2.596.765 5.263 1.099 8 1v1c-2.333 1.333-4.667 1.333-7 0-.333-.667-.667-1.333-1-2Z"/><path style="opacity:1" fill="#efc64e" d="M262.5 305.5v140c-3.822 5.942-9.156 7.608-16 5-.333-.667-.667-1.333-1-2 9.416 4.292 14.749 1.292 16-9-.906-43.702-1.24-87.369-1-131 .442-1.239 1.109-2.239 2-3Z"/><path style="opacity:1" fill="#fefee7" d="M697.5 374.5c1.517.011 2.684.677 3.5 2 .414-.457.914-.791 1.5-1 1.339 3.685 2.672 7.351 4 11-3.475-3.604-6.475-7.604-9-12Z"/><path style="opacity:1" fill="#f4cb59" d="M625.5 373.5c13.307 7.136 24.307 16.803 33 29-6.438-5.936-12.771-12.103-19-18.5-4.234-3.082-8.567-5.916-13-8.5-.333-.667-.667-1.333-1-2Z"/><path style="opacity:1" fill="#fffddf" d="M465.5 378.5c.219 1.175-.114 2.175-1 3-2.474.82-4.807 1.82-7 3 2.3-2.484 4.967-4.484 8-6Z"/><path style="opacity:1" fill="#fffedb" d="M318.5 385.5c-1.489 2.145-2.489 4.478-3 7-1.228.806-2.228 1.806-3 3 1.12-2.887 2.12-5.887 3-9 .917-.627 1.917-.961 3-1Z"/><path style="opacity:1" fill="#f3cd52" d="M318.5 385.5h1c-.579 2.831-1.912 5.164-4 7 .511-2.522 1.511-4.855 3-7Z"/><path style="opacity:1" fill="#edca53" d="M364.5 395.5c-9.923-1.14-19.923-1.307-30-.5-1.425 3.9-2.758 7.733-4 11.5-.127-4.449.873-8.616 3-12.5 9.201-.206 18.368-.706 27.5-1.5 1.95.207 3.116 1.207 3.5 3Z"/><path style="opacity:1" fill="#f5d052" d="M315.5 392.5c-1.172 4.158-3.172 7.825-6 11 .954-2.643 1.954-5.31 3-8 .772-1.194 1.772-2.194 3-3Z"/><path style="opacity:1" fill="#fefefe" d="M366.5 407.5c.245 7.062 1.078 14.062 2.5 21 .383.556.883.889 1.5 1-.165 3.35.002 6.683.5 10 1.168 3.724 2.335 7.391 3.5 11v12c-15.87 2.071-31.87 2.571-48 1.5-1.063-1.188-2.397-1.688-4-1.5v-11c1.58-2.682 2.746-5.682 3.5-9 .498-3.317.665-6.65.5-10 .146-3.887.813-7.554 2-11 1.575-3.029 2.741-6.362 3.5-10 .427-5.09 1.26-10.09 2.5-15h28c.963 3.958 2.297 7.625 4 11Z"/><path style="opacity:1" fill="#fffdd5" d="M451.5 389.5c-2.731 3.734-6.064 6.734-10 9 2.731-3.734 6.064-6.734 10-9Z"/><path style="opacity:1" fill="#eec641" d="M364.5 395.5c1.663 1.938 2.329 4.272 2 7-1.112-2.099-1.779-4.433-2-7Z"/><path style="opacity:1" fill="#f1ca55" d="M469.5 374.5c-1.639.973-2.973 2.306-4 4-3.033 1.516-5.7 3.516-8 6-2.589.919-4.589 2.586-6 5-3.936 2.266-7.269 5.266-10 9-3.712 2.711-6.712 6.044-9 10-4.44 4.778-8.107 10.112-11 16-3.259 3.729-5.593 8.062-7 13-1.695 2.397-3.028 5.063-4 8-.667 1-1.333 2-2 3 8.15-23.079 21.484-42.912 40-59.5 6-4.667 12-9.333 18-14 .948-.483 1.948-.649 3-.5Z"/><path style="opacity:1" fill="#fffac7" d="M712.5 395.5c2.893 2.248 4.56 5.248 5 9-2.027-2.72-3.693-5.72-5-9Z"/><path style="opacity:1" fill="#fffdd4" d="M441.5 398.5c-1.587 2.768-3.42 5.435-5.5 8-.816 1.323-1.983 1.989-3.5 2 2.288-3.956 5.288-7.289 9-10Z"/><path style="opacity:1" fill="#eec641" d="M366.5 402.5c1.582 3.376 2.249 7.042 2 11-.667-2-1.333-4-2-6v-5Z"/><path style="opacity:1" fill="#fefbd1" d="M566.5 414.5c-12.908-1.846-25.575-1.179-38 2 2.853-1.377 5.853-2.544 9-3.5 4.833-.167 9.667-.333 14.5-.5 5.216.006 10.049.673 14.5 2Z"/><path style="opacity:1" fill="#f2c84d" d="M658.5 402.5c5.21 5.207 9.21 11.207 12 18-4.385-5.723-8.385-11.723-12-18Z"/><path style="opacity:1" fill="#fffed0" d="M364.5 395.5c.221 2.567.888 4.901 2 7v5c-1.703-3.375-3.037-7.042-4-11h-28c-1.24 4.91-2.073 9.91-2.5 15-.759 3.638-1.925 6.971-3.5 10 .775-4.984 1.442-9.984 2-15 1.242-3.767 2.575-7.6 4-11.5 10.077-.807 20.077-.64 30 .5Z"/><path style="opacity:1" fill="#fffccf" d="M366.5 407.5c.667 2 1.333 4 2 6 .449 5.376 1.116 10.709 2 16-.617-.111-1.117-.444-1.5-1-1.422-6.938-2.255-13.938-2.5-21Z"/><path style="opacity:1" fill="#f3cc51" d="M309.5 403.5c-2.909 8.416-6.576 16.416-11 24 1.805-5.416 3.805-10.749 6-16 1.667-2.667 3.333-5.333 5-8Z"/><path style="opacity:1" fill="#f1cb51" d="M670.5 420.5c1.406.473 2.073 1.473 2 3-1.406-.473-2.073-1.473-2-3Z"/><path style="opacity:1" fill="#f2c950" d="M584.5 422.5c1.527-.073 2.527.594 3 2-1.527.073-2.527-.594-3-2Z"/><path style="opacity:1" fill="#fdfde5" d="M584.5 422.5v-1c5.489.199 9.655 2.532 12.5 7 .893-1.211 1.726-1.211 2.5 0-.863 1.226-.863 2.56 0 4-3.746-3.085-7.746-5.751-12-8-.473-1.406-1.473-2.073-3-2Z"/><path style="opacity:1" fill="#f1c952" d="M330.5 406.5c-.558 5.016-1.225 10.016-2 15-1.187 3.446-1.854 7.113-2 11-.667 1.667-1.333 3.333-2 5-.165-3.018.002-6.018.5-9 1.376-7.594 3.209-14.927 5.5-22Z"/><path style="opacity:1" fill="#f0cf5f" d="M368.5 413.5c.722.418 1.222 1.084 1.5 2 1.272 7.649 2.438 15.316 3.5 23-1.316-2.908-2.316-5.908-3-9-.884-5.291-1.551-10.624-2-16Z"/><path style="opacity:1" fill="#f2c54d" d="M672.5 423.5c2.039 1.411 3.039 3.411 3 6h-1c-.667-2-1.333-4-2-6Z"/><path style="opacity:1" fill="#fffcdb" d="M421.5 424.5c-1.072 5.151-3.405 9.485-7 13 1.407-4.938 3.741-9.271 7-13Z"/><path style="opacity:1" fill="#fffddb" d="M507.5 429.5c-3.029 3.359-6.029 6.692-9 10-.901-3.741.432-5.741 4-6v-3c1.716-.129 3.383-.462 5-1ZM304.5 411.5c-2.195 5.251-4.195 10.584-6 16-2.719 5.152-5.052 10.486-7 16 1.833-8.838 4.333-17.505 7.5-26l1 1c1.047-2.795 2.547-5.128 4.5-7Z"/><path style="opacity:1" fill="#fefcd0" d="M370.5 429.5c.684 3.092 1.684 6.092 3 9 .146 4.019.479 8.019 1 12-1.165-3.609-2.332-7.276-3.5-11-.498-3.317-.665-6.65-.5-10Z"/><path style="opacity:1" fill="#fdf6bf" d="M730.5 433.5c3.149 3.959 4.816 8.626 5 14-2.18-4.385-3.847-9.052-5-14Z"/><path style="opacity:1" fill="#f0c64e" d="M298.5 427.5c-5.693 16.844-10.36 33.844-14 51 1.434-11.838 3.768-23.505 7-35 1.948-5.514 4.281-10.848 7-16Z"/><path style="opacity:1" fill="#fffed5" d="M326.5 432.5c.165 3.35-.002 6.683-.5 10-.754 3.318-1.92 6.318-3.5 9 .796-4.647 1.463-9.314 2-14 .667-1.667 1.333-3.333 2-5Z"/><path style="opacity:1" fill="#f4cc53" d="M566.5 414.5c6.088 1.922 12.088 4.255 18 7v1c-4.935-1.145-9.602-2.978-14-5.5-38.52-6.912-65.853 7.255-82 42.5.429-3.737 1.762-7.07 4-10 1.991-3.328 3.991-6.661 6-10 2.971-3.308 5.971-6.641 9-10 6.312-5.636 13.312-9.969 21-13 12.425-3.179 25.092-3.846 38-2Z"/><path style="opacity:1" fill="#fefacb" d="M291.5 443.5c-3.232 11.495-5.566 23.162-7 35h-1c1.121-11.211 3.121-22.211 6-33 .682-.743 1.349-1.409 2-2Z"/><path style="opacity:1" fill="#f0c63f" d="M408.5 448.5c-.296 1.903-.963 3.57-2 5-.38-2.198.287-3.865 2-5Z"/><path style="opacity:1" fill="#fef8c3" d="M762.5 445.5c3.365 5.548 8.365 7.548 15 6-3.851 1.309-7.851 1.309-12 0-2.059-1.451-3.059-3.451-3-6Z"/><path style="opacity:1" fill="#efc546" d="M373.5 438.5c2.502 5.2 3.502 10.867 3 17-.667-1.667-1.333-3.333-2-5-.521-3.981-.854-7.981-1-12Z"/><path style="opacity:1" fill="#fffbcf" d="M410.5 445.5c.308 2.424-.026 4.757-1 7-1.16 2.211-2.493 4.211-4 6 .538-1.617.871-3.284 1-5 1.037-1.43 1.704-3.097 2-5 .667-1 1.333-2 2-3Z"/><path style="opacity:1" fill="#f1c544" d="M406.5 453.5c-.129 1.716-.462 3.383-1 5 0 .667-.333 1-1 1-.241-2.398.426-4.398 2-6Z"/><path style="opacity:1" fill="#fffcd5" d="M735.5 447.5c.958.453 1.792 1.119 2.5 2 2.194 9.269 3.694 18.602 4.5 28-2.059-9.943-4.392-19.943-7-30Z"/><path style="opacity:1" fill="#fffdd0" d="M492.5 449.5c-2.238 2.93-3.571 6.263-4 10l-2 2c.536-3.055 1.369-6.055 2.5-9 .759-1.563 1.926-2.563 3.5-3Z"/><path style="opacity:1" fill="#f5d675" d="M211.5 378.5h1v237h-1c-1.098-78.924-1.098-157.924 0-237Z"/><path style="opacity:1" fill="#fffed6" d="M374.5 450.5c.667 1.667 1.333 3.333 2 5 .163 2.357-.003 4.69-.5 7-.903 1.201-2.069 2.035-3.5 2.5-15.667.667-31.333.667-47 0-1.391-1.02-2.891-1.853-4.5-2.5-.567-3.917-.067-7.583 1.5-11v11c1.603-.188 2.937.312 4 1.5 16.13 1.071 32.13.571 48-1.5v-12Z"/><path style="opacity:1" fill="#f6cd59" d="M324.5 437.5c-.537 4.686-1.204 9.353-2 14-1.567 3.417-2.067 7.083-1.5 11 1.609.647 3.109 1.48 4.5 2.5 15.667.667 31.333.667 47 0 1.431-.465 2.597-1.299 3.5-2.5.497-2.31.663-4.643.5-7 3.019 4.46 2.019 7.96-3 10.5-16.311 1.641-32.644 1.641-49 0-3.574-.74-5.574-2.907-6-6.5 2.03-7.467 4.03-14.8 6-22Z"/><path style="opacity:1" fill="#f2ca55" d="M587.5 424.5c4.254 2.249 8.254 4.915 12 8 .333 1 1 1.667 2 2 1.647 2.973 3.647 5.64 6 8v1c1.434 2.547 3.1 4.881 5 7 1.426 3.05 2.759 6.05 4 9 .375 2.198 1.042 4.198 2 6 22.827.998 45.827 1.331 69 1 .268-1.599-.066-2.932-1-4 .09-2.652-.576-4.985-2-7-.756-4.267-2.089-8.267-4-12-1.674-4.677-3.34-9.344-5-14 5.357 9.329 9.524 19.329 12.5 30 .818 2.727.652 5.394-.5 8-22.624 1.156-45.29 1.322-68 .5-.916-.374-1.75-.874-2.5-1.5-5.46-17.258-15.293-31.258-29.5-42Z"/><path style="opacity:1" fill="#fffec2" d="M686.5 462.5c.934 1.068 1.268 2.401 1 4-23.173.331-46.173-.002-69-1 22.839.331 45.506-.003 68-1v-2Z"/><path style="opacity:1" fill="#fffee8" d="M616.5 459.5c1.713 1.135 2.38 2.802 2 5h68c-22.494.997-45.161 1.331-68 1-.958-1.802-1.625-3.802-2-6Z"/><path style="opacity:1" fill="#fffcd4" d="M680.5 443.5c1.911 3.733 3.244 7.733 4 12-1.595-1.611-2.761-3.611-3.5-6-.495-1.973-.662-3.973-.5-6Z"/><path style="opacity:1" fill="#fffcd1" d="M607.5 443.5c.996-.086 1.829.248 2.5 1 1.559 1.717 2.392 3.717 2.5 6-1.9-2.119-3.566-4.453-5-7Z"/><path style="opacity:1" fill="#fffccf" d="M601.5 434.5c3.058 1.743 5.058 4.41 6 8-2.353-2.36-4.353-5.027-6-8Z"/><path style="opacity:1" fill="#fffdd4" d="M674.5 429.5h1c1.66 4.656 3.326 9.323 5 14-3.61-3.896-5.61-8.563-6-14Z"/><path style="opacity:1" fill="#f4d059" d="M488.5 459.5c-2.891 11.429-5.558 23.096-8 35 .171-9.217 1.504-18.217 4-27 .785-1.874 1.452-3.874 2-6l2-2Z"/><path style="opacity:1" fill="#fffedf" d="M404.5 463.5c.164 2.687-.003 5.354-.5 8-.749 3.003-1.915 5.669-3.5 8 .461-5.664 1.794-10.997 4-16Z"/><path style="opacity:1" fill="#fffde5" d="M328.5 484.5c-.667.333-1.333.667-2 1 .612-3.381-.554-5.714-3.5-7-.945.405-1.612 1.072-2 2-.684-1.284-.517-2.451.5-3.5-.5-.167-1-.333-1.5-.5-2.321.987-3.987 2.654-5 5 1.316 3.937-.184 5.937-4.5 6 .667-2 1.333-4 2-6 2.434-2.938 5.101-5.771 8-8.5 8.586-.557 11.253 3.277 8 11.5Z"/><path style="opacity:1" fill="#f3d25b" d="M812.5 283.5c.814 2.131 1.314 4.464 1.5 7 .167 72.333.333 144.667.5 217-.337 73.04-.337 145.874 0 218.5-.609 1.948-1.276 3.782-2 5.5v-8c1.32-146.509 1.32-293.176 0-440Z"/><path style="opacity:1" fill="#f5cc52" d="M328.5 484.5c3.253-8.223.586-12.057-8-11.5-2.899 2.729-5.566 5.562-8 8.5 1.974-5.141 5.474-8.807 10.5-11 7.109 1.51 9.442 5.843 7 13-.383.556-.883.889-1.5 1Z"/><path style="opacity:1" fill="#f1ca51" d="M312.5 481.5c-.667 2-1.333 4-2 6l-2 2c.329-3.327 1.663-5.993 4-8Z"/><path style="opacity:1" fill="#fef7af" d="M282.5 482.5h1c-.351 4.184-1.018 8.184-2 12-.193-4.066.14-8.066 1-12Z"/><path style="opacity:1" fill="#fffed7" d="M400.5 479.5c.569 3.829-.098 7.163-2 10 .049-3.578.715-6.911 2-10Z"/><path style="opacity:1" fill="#fffcce" d="M484.5 467.5c-2.496 8.783-3.829 17.783-4 27-.667 2.333-1.333 4.667-2 7v-1c.187-9.085 1.187-18.085 3-27 .464-2.475 1.464-4.475 3-6ZM282.5 482.5c-.86 3.934-1.193 7.934-1 12-1.073 18.349-.74 36.683 1 55-.722-.418-1.222-1.084-1.5-2-2-21.333-2-42.667 0-64 .383-.556.883-.889 1.5-1Z"/><path style="opacity:1" fill="#fff9ca" d="M742.5 477.5c.617.111 1.117.444 1.5 1 3.489 26.947 3.322 53.947-.5 81-.42 3.116-1.42 5.783-3 8 5.71-29.877 6.376-59.877 2-90Z"/><path style="opacity:1" fill="#fffac6" d="M320.5 494.5c-2.459 4.313-3.459 8.98-3 14-1.141-3.14-1.308-6.473-.5-10 .74-1.819 1.907-3.152 3.5-4Z"/><path style="opacity:1" fill="#fefefc" d="M326.5 485.5c-1.632 3.289-3.632 6.289-6 9-1.593.848-2.76 2.181-3.5 4-.808 3.527-.641 6.86.5 10 .667.333 1.333.667 2 1 17.492.997 35.159 1.33 53 1-.327 10.181.006 20.181 1 30 .333.667.667 1.333 1 2-.628 7.413.039 14.413 2 21-.124 11.668 2.376 22.668 7.5 33 .494 1.634.66 3.301.5 5h-74c-.283-.789-.783-1.456-1.5-2-.5-34.665-.667-69.332-.5-104v-6l2-2c4.316-.063 5.816-2.063 4.5-6 1.013-2.346 2.679-4.013 5-5 .5.167 1 .333 1.5.5-1.017 1.049-1.184 2.216-.5 3.5.388-.928 1.055-1.595 2-2 2.946 1.286 4.112 3.619 3.5 7Z"/><path style="opacity:1" fill="#f0c544" d="M328.5 484.5c-1.414 4.601-3.914 8.601-7.5 12-2.267 3.484-2.767 7.151-1.5 11 18.162.667 36.162 1.333 54 2h-54c-.667-.333-1.333-.667-2-1-.459-5.02.541-9.687 3-14 2.368-2.711 4.368-5.711 6-9 .667-.333 1.333-.667 2-1Z"/><path style="opacity:1" fill="#fffedd" d="M478.5 500.5v1c-.043 8.348-.376 16.681-1 25-1.157-8.156-1.323-16.49-.5-25 .383-.556.883-.889 1.5-1Z"/><path style="opacity:1" fill="#f1c74c" d="M666.5 343.5h2c1.667 2.333 3.667 4.333 6 6 1.86 1.439 3.527 3.105 5 5 2.772 3.194 5.772 6.194 9 9 2.652 3.982 5.652 7.649 9 11 2.525 4.396 5.525 8.396 9 12 1.765 3.209 3.765 6.209 6 9 1.307 3.28 2.973 6.28 5 9 4.839 9.485 9.172 19.152 13 29 1.153 4.948 2.82 9.615 5 14 2.608 10.057 4.941 20.057 7 30 4.376 30.123 3.71 60.123-2 90-1.268 2.405-1.935 5.072-2 8v1c-.667 1-1.333 2-2 3 1.324-10.102 3.157-20.102 5.5-30 4.238-34.229 1.572-67.896-8-101-12.868-40.53-35.368-75.53-67.5-105Z"/><path style="opacity:1" fill="#fff4b9" d="M398.5 489.5c-1.485 15.284-2.152 30.617-2 46-1.568-15.417-.902-30.75 2-46Z"/><path style="opacity:1" fill="#f2cd5c" d="M308.5 489.5v6c-1.164 34.831-1.331 69.831-.5 105 .671.752 1.504 1.086 2.5 1 24.161.998 48.494 1.331 73 1-24.333.667-48.667 1.333-73 2-.974-1.135-2.141-2.135-3.5-3-.667-36.667-.667-73.333 0-110 .278-.916.778-1.582 1.5-2Z"/><path style="opacity:1" fill="#fffed2" d="M308.5 495.5c-.167 34.668 0 69.335.5 104 .717.544 1.217 1.211 1.5 2-.996.086-1.829-.248-2.5-1-.831-35.169-.664-70.169.5-105Z"/><path style="opacity:1" fill="#fef8d0" d="M319.5 509.5h54v31c-.994-9.819-1.327-19.819-1-30-17.841.33-35.508-.003-53-1Z"/><path style="opacity:1" fill="#eec342" d="M283.5 478.5h1c-1.226 14.197-2.226 28.364-3 42.5.713 11.822 1.713 23.656 3 35.5-.667-2.333-1.333-4.667-2-7-1.74-18.317-2.073-36.651-1-55 .982-3.816 1.649-7.816 2-12v-4Z"/><path style="opacity:1" fill="#f2c74b" d="M480.5 494.5c-1.24 22.384-.574 44.717 2 67-1.132-3.128-1.965-6.462-2.5-10-.171-8.177-.671-16.177-1.5-24-.667 0-1-.333-1-1 .624-8.319.957-16.652 1-25 .667-2.333 1.333-4.667 2-7Z"/><path style="opacity:1" fill="#fffee6" d="M353.5 536.5c-3.213-.31-6.213.023-9 1-3.035.039-5.702 1.039-8 3 .221-1.235.888-2.235 2-3 4.303-2.623 8.97-3.457 14-2.5.556.383.889.883 1 1.5Z"/><path style="opacity:1" fill="#fdf3bd" d="M344.5 537.5c2.787-.977 5.787-1.31 9-1 2.589-.039 4.589.961 6 3-1.617-.538-3.284-.871-5-1-3.125-.979-6.458-1.313-10-1Z"/><path style="opacity:1" fill="#dfaf8e" d="M354.5 538.5c11.376 6.441 14.543 15.774 9.5 28-2.795 3.311-5.961 5.977-9.5 8-6.404.722-12.404-.278-18-3-.667-1.333-1.667-2.333-3-3-2.672-6.003-3.672-12.336-3-19 2.136-2.312 4.136-4.812 6-7.5 5.571-3.136 11.571-4.302 18-3.5Z"/><path style="opacity:1" fill="#fefedd" d="M359.5 539.5c2.128 1.457 4.462 2.457 7 3 1.438 3.948 2.105 8.115 2 12.5-.003 2.69-.336 5.19-1 7.5.166-4.679-.001-9.345-.5-14-2.335-3.165-4.835-6.165-7.5-9Z"/><path style="opacity:1" fill="#f3cb53" d="M373.5 509.5c1.509 19.72 3.342 39.72 5.5 60 2.069 9.541 4.569 18.874 7.5 28-5.142-10.762-8.475-22.096-10-34-.407-7.17-1.074-14.17-2-21-.333-.667-.667-1.333-1-2v-31Z"/><path style="opacity:1" fill="#f0c954" d="M344.5 537.5c3.542-.313 6.875.021 10 1-6.429-.802-12.429.364-18 3.5-1.864 2.688-3.864 5.188-6 7.5v-2c1.763-2.52 3.763-4.853 6-7 2.298-1.961 4.965-2.961 8-3Z"/><path style="opacity:1" fill="#fdf2b9" d="M478.5 527.5c.829 7.823 1.329 15.823 1.5 24 .535 3.538 1.368 6.872 2.5 10 .801 1.542 1.134 3.208 1 5h-1c-2.004-3.16-3.171-6.827-3.5-11-.5-9.327-.666-18.661-.5-28Z"/><path style="opacity:1" fill="#fce9a4" d="M330.5 547.5v2c-.982 3.462-1.315 7.129-1 11-.663-1.973-.996-4.139-1-6.5.033-2.61.7-4.777 2-6.5Z"/><path style="opacity:1" fill="#fffcc6" d="M282.5 549.5c.667 2.333 1.333 4.667 2 7v1c.052 3.698.386 7.365 1 11-1.511-1.976-2.344-4.309-2.5-7-.499-3.986-.666-7.986-.5-12Z"/><path style="opacity:1" fill="#fffed5" d="M374.5 542.5c.926 6.83 1.593 13.83 2 21-1.961-6.587-2.628-13.587-2-21Z"/><path style="opacity:1" fill="#ecc04e" d="M284.5 557.5c1.489 3.736 2.156 7.736 2 12h-1v-1c-.614-3.635-.948-7.302-1-11Z"/><path style="opacity:1" fill="#edc44c" d="M330.5 549.5c-.672 6.664.328 12.997 3 19-2.373-2.079-3.706-4.746-4-8-.315-3.871.018-7.538 1-11Z"/><path style="opacity:1" fill="#fffad5" d="M367.5 563.5c-2.345 8.011-7.678 12.345-16 13 1-.667 2-1.333 3-2 5.882-1.885 10.215-5.552 13-11Z"/><path style="opacity:1" fill="#f6d86f" d="M333.5 568.5c1.333.667 2.333 1.667 3 3-2 0-3-1-3-3Z"/><path style="opacity:1" fill="#f2c854" d="M354.5 538.5c1.716.129 3.383.462 5 1 2.665 2.835 5.165 5.835 7.5 9 .499 4.655.666 9.321.5 14v1c-2.785 5.448-7.118 9.115-13 11 3.539-2.023 6.705-4.689 9.5-8 5.043-12.226 1.876-21.559-9.5-28Z"/><path style="opacity:1" fill="#fffcd2" d="M398.5 555.5c3.714 15.814 7.714 31.814 12 48-7.02-15.094-11.02-31.094-12-48Z"/><path style="opacity:1" fill="#fffdcf" d="M740.5 567.5c.536 3.198-.131 5.865-2 8 .065-2.928.732-5.595 2-8Z"/><path style="opacity:1" fill="#f0c64a" d="M483.5 566.5c1.76 4.047 2.76 8.38 3 13-1.76-4.047-2.76-8.38-3-13Z"/><path style="opacity:1" fill="#f3ca58" d="M336.5 571.5c5.596 2.722 11.596 3.722 18 3-1 .667-2 1.333-3 2-4.082.156-8.082-.344-12-1.5-1.21-1.039-2.21-2.206-3-3.5Z"/><path style="opacity:1" fill="#edbf46" d="M286.5 569.5c.617.111 1.117.444 1.5 1 .497 2.31.663 4.643.5 7-1.268-2.405-1.935-5.072-2-8Z"/><path style="opacity:1" fill="#f2c639" d="M619.5 577.5c22.163-1.163 44.496-1.33 67-.5.878 2.658.544 5.158-1 7.5v-7h-66Z"/><path style="opacity:1" fill="#edc245" d="M288.5 577.5c1.94 4.415 3.273 9.082 4 14h-1c-1.31-4.576-2.31-9.243-3-14Z"/><path style="opacity:1" fill="#fff7c9" d="M619.5 577.5h66v7c-.667.333-1.333.667-2 1 .65-1.935.983-3.935 1-6-21.336-.167-42.669 0-64 .5-.544.717-1.211 1.217-2 1.5.333-1.333.667-2.667 1-4Z"/><path style="opacity:1" fill="#fffcd2" d="M285.5 569.5h1c.065 2.928.732 5.595 2 8 .69 4.757 1.69 9.424 3 14-3.848-6.715-5.848-14.048-6-22Z"/><path style="opacity:1" fill="#fffbcd" d="M482.5 566.5h1c.24 4.62 1.24 8.953 3 13 .095 2.286.762 4.286 2 6 .463 2.721 1.129 5.388 2 8-2.701-5.078-5.034-10.411-7-16-.989-3.607-1.323-7.274-1-11Z"/><path style="opacity:1" fill="#efc642" d="M486.5 579.5c1.574 1.602 2.241 3.602 2 6-1.238-1.714-1.905-3.714-2-6Z"/><path style="opacity:1" fill="#fffcc6" d="M738.5 576.5c.09 2.652-.576 4.985-2 7v-4c.667-1 1.333-2 2-3Z"/><path style="opacity:1" fill="#fffbca" d="M248.5 584.5c2.804-1.138 5.804-1.305 9-.5.556.383.889.883 1 1.5-3.264-.824-6.598-1.158-10-1Z"/><path style="opacity:1" fill="#f0c64c" d="M736.5 579.5v4c-1.503 3.841-2.836 7.841-4 12-1.238 1.714-1.905 3.714-2 6-2.084 2.553-3.417 5.553-4 9-1.333 2-2.667 4-4 6 2.947-8.105 6.114-16.105 9.5-24 1.586-3.844 2.586-7.844 3-12 .383-.556.883-.889 1.5-1Z"/><path style="opacity:1" fill="#fffcd5" d="M775.5 584.5c-4.107-.377-7.774.623-11 3v-3c2.51-.498 5.01-1.164 7.5-2 1.681.108 2.848.775 3.5 2Z"/><path style="opacity:1" fill="#f4c749" d="M248.5 584.5c3.402-.158 6.736.176 10 1 1.425 1.422 2.425 3.089 3 5 .306 2.885-.027 5.552-1 8 1.231-7.597-1.936-11.93-9.5-13-2.468.604-4.468 1.938-6 4-1.127 12.412-1.96 24.745-2.5 37v-35c.568-3.567 2.568-5.901 6-7Z"/><path style="opacity:1" fill="#dfaf8e" d="M260.5 598.5c-.002 39.006.498 78.006 1.5 117 .441 4.5 1.941 8.5 4.5 12 2.003 7.99 6.336 14.323 13 19 2.833 3.99 6.499 7.157 11 9.5 3.148 1.076 6.148 2.409 9 4 3.991.642 7.991 1.142 12 1.5 112.518.891 225.185 1.224 338 1 21.507.331 42.84-.003 64-1 24.997-3.832 41.164-17.832 48.5-42 .5-8.994.666-17.994.5-27-.167-32.668 0-65.335.5-98 3.382-9.072 9.216-11.072 17.5-6 .209 1.422.709 2.755 1.5 4 .5 41.332.667 82.665.5 124-5.247 31.088-22.913 51.588-53 61.5-15.628 1.382-31.294 1.882-47 1.5-98.652-.241-197.319.092-296 1-27.402-.671-54.902-1.337-82.5-2-.414.457-.914.791-1.5 1-6.259-1.987-12.593-3.653-19-5-7.273-4.605-14.273-9.605-21-15-1.31-2.973-3.31-5.307-6-7 .073-1.527-.594-2.527-2-3-2.291-5.212-4.958-10.212-8-15-1.165-5.969-2.332-11.969-3.5-18-.5-29.998-.667-59.998-.5-90 .54-12.255 1.373-24.588 2.5-37 1.532-2.062 3.532-3.396 6-4 7.564 1.07 10.731 5.403 9.5 13Z"/><path style="opacity:1" fill="#fffed4" d="M618.5 581.5c.162 2.027-.005 4.027-.5 6-1.049 2.687-2.549 5.02-4.5 7 1.431-4.511 3.098-8.845 5-13Z"/><path style="opacity:1" fill="#f2cb4f" d="M619.5 577.5c-.333 1.333-.667 2.667-1 4-1.902 4.155-3.569 8.489-5 13h-1c1.198-4.738 2.698-9.405 4.5-14 .377-1.442 1.21-2.442 2.5-3Z"/><path style="opacity:1" fill="#fffeda" d="M736.5 583.5c.492 4.736-.842 8.736-4 12 1.164-4.159 2.497-8.159 4-12Z"/><path style="opacity:1" fill="#f4cd58" d="M685.5 584.5c-.358 5.655-2.025 10.655-5 15 .749-4.745 1.749-9.412 3-14 .667-.333 1.333-.667 2-1Z"/><path style="opacity:1" fill="#ecc44b" d="M612.5 594.5c-.16 1.653-.826 2.986-2 4-.271-1.88.396-3.213 2-4Z"/><path style="opacity:1" fill="#f0c752" d="M488.5 585.5c2.949 4.157 4.949 8.823 6 14-1.333-2-2.667-4-4-6-.871-2.612-1.537-5.279-2-8Z"/><path style="opacity:1" fill="#fffccf" d="M732.5 595.5c.475 2.582-.192 4.582-2 6 .095-2.286.762-4.286 2-6Z"/><path style="opacity:1" fill="#fffdd8" d="M291.5 591.5h1c.569 4.622 1.903 8.955 4 13-3.36-3.57-5.027-7.903-5-13Z"/><path style="opacity:1" fill="#f2c84d" d="M292.5 591.5c3.35 6.738 6.35 13.738 9 21-1.333-1.667-2.667-3.333-4-5 .237-1.291-.096-2.291-1-3-2.097-4.045-3.431-8.378-4-13Z"/><path style="opacity:1" fill="#f3cb53" d="M404.5 459.5v4c-2.206 5.003-3.539 10.336-4 16-1.285 3.089-1.951 6.422-2 10-2.902 15.25-3.568 30.583-2 46 .632 6.767 1.299 13.433 2 20 .98 16.906 4.98 32.906 12 48 2.172 5.678 4.839 11.011 8 16 1.587 4.183 3.921 7.85 7 11 5.516 9.19 12.516 17.19 21 24 1.333 1.667 2.667 3.333 4 5-19.85-15.691-34.35-35.357-43.5-59-15.024-46.208-16.358-92.875-4-140 .383-.556.883-.889 1.5-1Z"/><path style="opacity:1" fill="#fffed1" d="M376.5 563.5c1.525 11.904 4.858 23.238 10 34 .134 1.792-.199 3.458-1 5h-2c-24.506.331-48.839-.002-73-1h74c.16-1.699-.006-3.366-.5-5-5.124-10.332-7.624-21.332-7.5-33Z"/><path style="opacity:1" fill="#f7ca45" d="M386.5 597.5c2.805 2.256 2.472 3.923-1 5 .801-1.542 1.134-3.208 1-5Z"/><path style="opacity:1" fill="#f4c433" d="M383.5 602.5h2c-.111.617-.444 1.117-1 1.5-24.664.5-49.331.667-74 .5 24.333-.667 48.667-1.333 73-2Z"/><path style="opacity:1" fill="#fffcd9" d="M612.5 594.5h1c.206 4.442-1.46 7.775-5 10 .667-2 1.333-4 2-6 1.174-1.014 1.84-2.347 2-4Z"/><path style="opacity:1" fill="#fffcdd" d="M494.5 601.5c2.164 2.322 3.831 4.989 5 8-3.687-1.374-5.353-4.041-5-8Z"/><path style="opacity:1" fill="#f1c64e" d="M494.5 599.5c3.383 4.053 6.383 8.386 9 13-1.333-1-2.667-2-4-3-1.169-3.011-2.836-5.678-5-8v-2Z"/><path style="opacity:1" fill="#fefcd0" d="M730.5 601.5c.157 1.373-.01 2.707-.5 4-.902 1.931-2.069 3.597-3.5 5 .583-3.447 1.916-6.447 4-9Z"/><path style="opacity:1" fill="#fffed7" d="M763.5 588.5c-.392 1.679-.892 3.346-1.5 5-.5 32.998-.667 65.998-.5 99 .325 7.852-.008 15.518-1 23-.167-41.668 0-83.335.5-125 .708-.881 1.542-1.547 2.5-2Z"/><path style="opacity:1" fill="#fffbc6" d="M499.5 609.5c1.333 1 2.667 2 4 3v2c-2.087-1.085-3.42-2.751-4-5Z"/><path style="opacity:1" fill="#fffee4" d="M608.5 604.5c-.215 2.274-.882 4.441-2 6.5 1.407 4.777.74 5.277-2 1.5-2.019 1.69-4.019 3.356-6 5 3.34-4.339 6.674-8.672 10-13Z"/><path style="opacity:1" fill="#efc949" d="M301.5 612.5c1.793 1.926 2.793 4.259 3 7-1.793-1.926-2.793-4.259-3-7Z"/><path style="opacity:1" fill="#ffface" d="M297.5 607.5c1.333 1.667 2.667 3.333 4 5 .207 2.741 1.207 5.074 3 7v2c-1.359-.507-2.359-1.507-3-3-1.347-3.674-2.681-7.341-4-11Z"/><path style="opacity:1" fill="#f4cb52" d="M680.5 599.5c-2.318 7.443-5.152 14.776-8.5 22-2.61 4.242-5.443 8.242-8.5 12 .333-1.333.667-2.667 1-4 2.29-3.106 4.29-6.439 6-10 3.335-6.704 6.668-13.37 10-20Z"/><path style="opacity:1" fill="#f2ce62" d="M610.5 598.5c-.667 2-1.333 4-2 6-3.326 4.328-6.66 8.661-10 13-3.603 2.263-6.936 4.93-10 8-4.244 1.957-8.577 3.624-13 5 3.747-2.378 7.747-4.545 12-6.5 9.268-7.099 16.935-15.599 23-25.5Z"/><path style="opacity:1" fill="#f2cc4f" d="M392.5 622.5c-1.544-.203-2.878-.87-4-2-1.788.783-2.788 2.116-3 4h-2c.652-2.652 2.319-4.319 5-5 2.153.061 3.486 1.061 4 3Z"/><path style="opacity:1" fill="#efc747" d="M304.5 619.5c1.75 1.159 2.75 2.826 3 5-.667-.333-1.333-.667-2-1 .172-.992-.162-1.658-1-2v-2Z"/><path style="opacity:1" fill="#fffbc3" d="M392.5 622.5c1.275 3.104 1.275 6.104 0 9 .163-2.357-.003-4.69-.5-7-2.256-2.571-4.422-2.571-6.5 0 .212-1.884 1.212-3.217 3-4 1.122 1.13 2.456 1.797 4 2Z"/><path style="opacity:1" fill="#fffcd3" d="M258.5 585.5c2.229.555 3.895 1.889 5 4 1 42.661 1.333 85.328 1 128-.802-1.452-1.302-3.118-1.5-5-.167-40.835-.667-81.502-1.5-122-.575-1.911-1.575-3.578-3-5Z"/><path style="opacity:1" fill="#fffdda" d="M670.5 619.5c-1.71 3.561-3.71 6.894-6 10 .771-4.15 2.771-7.484 6-10Z"/><path style="opacity:1" fill="#fffde2" d="M726.5 610.5c.253 2.327-.414 4.327-2 6 .825.886 1.825 1.219 3 1 .149 1.052-.017 2.052-.5 3-1.356-.88-2.856-1.214-4.5-1 .376 3.423-.957 5.756-4 7 1.333-3.333 2.667-6.667 4-10 1.333-2 2.667-4 4-6Z"/><path style="opacity:1" fill="#fefef9" d="M392.5 631.5c-1.553 2.43-3.553 4.43-6 6-16.85 2.708-33.85 3.708-51 3-4.07-1.174-7.07-3.508-9-7v-5c18.697.654 37.03-.013 55-2l2-2h2c2.078-2.571 4.244-2.571 6.5 0 .497 2.31.663 4.643.5 7Z"/><path style="opacity:1" fill="#fffac8" d="M418.5 619.5c3.079 3.15 5.413 6.817 7 11-3.079-3.15-5.413-6.817-7-11Z"/><path style="opacity:1" fill="#fcf2b0" d="M305.5 623.5c.667.333 1.333.667 2 1v2c-1.406-.473-2.073-1.473-2-3Z"/><path style="opacity:1" fill="#f2cb53" d="M503.5 612.5c20.247 20.242 44.247 26.242 72 18l-2 2c-10.528 2.316-21.195 3.316-32 3-1.109-.057-2.109-.39-3-1-2.099-1.112-4.433-1.779-7-2-10.556-3.954-19.889-9.954-28-18v-2Z"/><path style="opacity:1" fill="#fffcd1" d="M307.5 627.5c1.699 2.066 3.032 4.4 4 7-2.442-1.621-3.775-3.954-4-7Z"/><path style="opacity:1" fill="#fffecd" d="M531.5 632.5c2.567.221 4.901.888 7 2-2.027.162-4.027-.005-6-.5-.556-.383-.889-.883-1-1.5Z"/><path style="opacity:1" fill="#f2c84f" d="M307.5 624.5c8.257 13.514 17.257 26.514 27 39-2.333-2-4.667-4-7-6-5.09-7.85-10.423-15.516-16-23-.968-2.6-2.301-4.934-4-7v-3Z"/><path style="opacity:1" fill="#fffcd8" d="M573.5 632.5c-1.975 1.59-4.308 2.757-7 3.5-8.51.823-16.844.657-25-.5 10.805.316 21.472-.684 32-3Z"/><path style="opacity:1" fill="#f2cd58" d="M722.5 616.5c-1.333 3.333-2.667 6.667-4 10-7.856 12.864-16.523 25.197-26 37-4.667 4-9 8.333-13 13-4.359 4.028-8.693 8.028-13 12-2.589.919-4.589 2.586-6 5h-2c13.936-12.102 27.103-25.102 39.5-39 8.747-12.368 16.913-25.035 24.5-38Z"/><path style="opacity:1" fill="#f2c847" d="M392.5 622.5c2.235.786 3.235 2.452 3 5-2.094 8.242-7.427 13.075-16 14.5-15 .667-30 .667-45 0-7.504-2.514-10.837-7.68-10-15.5 18.003.167 36.003 0 54-.5 1.525-1.009 3.192-1.509 5-1.5l-2 2c-18.62.974-37.287 1.308-56 1-.295 2.235.039 4.235 1 6 1.93 3.492 4.93 5.826 9 7 14.161 1.161 28.494 1.327 43 .5 2.811-.983 5.477-2.149 8-3.5 2.447-1.57 4.447-3.57 6-6 1.275-2.896 1.275-5.896 0-9Z"/><path style="opacity:1" fill="#fff6bf" d="M386.5 637.5c-2.523 1.351-5.189 2.517-8 3.5-14.506.827-28.839.661-43-.5 17.15.708 34.15-.292 51-3Z"/><path style="opacity:1" fill="#fff8c2" d="M381.5 626.5c-17.97 1.987-36.303 2.654-55 2v5c-.961-1.765-1.295-3.765-1-6 18.713.308 37.38-.026 56-1Z"/><path style="opacity:1" fill="#fffed6" d="M241.5 591.5c-.307 43.686.027 87.353 1 131-.617-.111-1.117-.444-1.5-1-.831-43.502-.665-86.835.5-130Z"/><path style="opacity:1" fill="#f5cf55" d="M780.5 588.5c.958.453 1.792 1.119 2.5 2 .5 41.999.667 83.999.5 126 .302 2.559-.032 4.893-1 7v-7c.167-41.335 0-82.668-.5-124-.791-1.245-1.291-2.578-1.5-4Z"/><path style="opacity:1" fill="#fefee3" d="M655.5 643.5c-3.333 4-7 7.667-11 11 .174-2.361.507-4.694 1-7 3.005.25 4.838-1.083 5.5-4 1.414.913 2.914.913 4.5 0Z"/><path style="opacity:1" fill="#fddb68" d="M775.5 584.5c1.333.667 2.667 1.333 4 2 .333.667.667 1.333 1 2-8.284-5.072-14.118-3.072-17.5 6-.5 32.665-.667 65.332-.5 98h-1c-.167-33.002 0-66.002.5-99 .608-1.654 1.108-3.321 1.5-5 0-.667.333-1 1-1 3.226-2.377 6.893-3.377 11-3Z"/><path style="opacity:1" fill="#fffedc" d="M643.5 655.5c-1.667 2.333-3.667 4.333-6 6 .158-3.918 2.158-5.918 6-6Z"/><path style="opacity:1" fill="#fffed3" d="M212.5 615.5h1c-.167 36.002 0 72.002.5 108 .376 6.111 1.209 12.111 2.5 18-.703-2.129-1.703-4.129-3-6-.952-39.986-1.286-79.986-1-120Z"/><path style="opacity:1" fill="#fffbc3" d="M446.5 654.5c2.589.919 4.589 2.586 6 5h-2c-1.333-1.667-2.667-3.333-4-5Z"/><path style="opacity:1" fill="#fffccd" d="M327.5 657.5c2.333 2 4.667 4 7 6v2c-3.073-2.069-5.406-4.736-7-8Z"/><path style="opacity:1" fill="#f3ca52" d="M663.5 633.5c-9.044 14.213-20.377 26.38-34 36.5-1.907 1.122-3.907 1.955-6 2.5.333-1 1-1.667 2-2 2.254-.624 3.921-1.957 5-4 2.612-1.279 4.945-2.945 7-5 2.333-1.667 4.333-3.667 6-6 .667 0 1-.333 1-1 4-3.333 7.667-7 11-11 2.294-3.627 4.96-6.961 8-10Z"/><path style="opacity:1" fill="#f4d877" d="M211.5 615.5h1c-.286 40.014.048 80.014 1 120-1.506-9.806-2.506-19.806-3-30 .467-29.999.8-59.999 1-90Z"/><path style="opacity:1" fill="#fffac0" d="M452.5 659.5c2.249.58 3.915 1.913 5 4h-2c-1-1.333-2-2.667-3-4Z"/><path style="opacity:1" fill="#f3cc4f" d="M450.5 659.5h2c1 1.333 2 2.667 3 4-2.249-.58-3.915-1.913-5-4Z"/><path style="opacity:1" fill="#edc855" d="M455.5 663.5h2c.333.667.667 1.333 1 2-1.527.073-2.527-.594-3-2Z"/><path style="opacity:1" fill="#fffdd0" d="M334.5 665.5c2 1.333 3.667 3 5 5-2.667-.667-4.333-2.333-5-5Z"/><path style="opacity:1" fill="#fffbcc" d="M630.5 666.5c-1.079 2.043-2.746 3.376-5 4 .765-2.429 2.431-3.762 5-4Z"/><path style="opacity:1" fill="#fffab8" d="M466.5 669.5c1.527-.073 2.527.594 3 2-1.527.073-2.527-.594-3-2Z"/><path style="opacity:1" fill="#f2c850" d="M334.5 663.5c8.413 8.083 16.746 16.083 25 24-5.558-3.216-10.558-7.216-15-12-1.333-2-3-3.667-5-5-1.333-2-3-3.667-5-5v-2Z"/><path style="opacity:1" fill="#fffed5" d="M692.5 663.5c-3.333 5.333-7.667 9.667-13 13 4-4.667 8.333-9 13-13Z"/><path style="opacity:1" fill="#fffdcf" d="M339.5 670.5c2 1.333 3.667 3 5 5-3-.333-4.667-2-5-5Z"/><path style="opacity:1" fill="#f5cd50" d="M458.5 665.5c2.667 1.333 5.333 2.667 8 4 .473 1.406 1.473 2.073 3 2 3.172 1.752 6.172 3.752 9 6-7.67-2.494-14.337-6.494-20-12Z"/><path style="opacity:1" fill="#fbda65" d="M241.5 591.5h1v35c-.167 30.002 0 60.002.5 90 1.168 6.031 2.335 12.031 3.5 18-1.913-3.822-3.246-7.822-4-12-.973-43.647-1.307-87.314-1-131Z"/><path style="opacity:1" fill="#fffdd8" d="M469.5 671.5c4.12-.266 7.454 1.068 10 4 4.741 1.785 9.074 4.118 13 7-4.677-1.674-9.344-3.34-14-5-2.828-2.248-5.828-4.248-9-6Z"/><path style="opacity:1" fill="#f4ce56" d="M623.5 672.5c-3.335 3.339-7.335 5.672-12 7 3.335-3.339 7.335-5.672 12-7Z"/><path style="opacity:1" fill="#fffed4" d="M779.5 586.5c2.092.061 3.592 1.061 4.5 3 .831 42.502.665 84.835-.5 127 .167-42.001 0-84.001-.5-126-.708-.881-1.542-1.547-2.5-2-.333-.667-.667-1.333-1-2Z"/><path style="opacity:1" fill="#fefee5" d="M679.5 676.5c-1.72 3.231-4.053 6.064-7 8.5.808.308 1.475.808 2 1.5-2.512 1.295-5.179 1.961-8 2 4.307-3.972 8.641-7.972 13-12Z"/><path style="opacity:1" fill="#f4cb51" d="M478.5 677.5c4.656 1.66 9.323 3.326 14 5 4.629 2.066 9.629 3.399 15 4 13.602 3.783 27.602 5.449 42 5 13.121.743 25.788-.923 38-5 4.025-.13 7.691-1.13 11-3 4.271-1.759 8.605-3.092 13-4-.929.815-1.929 1.648-3 2.5-38.947 13.972-77.947 14.639-117 2-4.673-1.67-9.007-3.837-13-6.5Z"/><path style="opacity:1" fill="#fffdd4" d="M507.5 686.5c13.705 2.442 27.538 3.775 41.5 4 5.167-.167 10.333-.333 15.5-.5 7.725-1.223 15.391-2.389 23-3.5-12.212 4.077-24.879 5.743-38 5-14.398.449-28.398-1.217-42-5Z"/><path style="opacity:1" fill="#fdf4b1" d="M598.5 683.5c-3.309 1.87-6.975 2.87-11 3 3.388-1.618 7.054-2.618 11-3Z"/><path style="opacity:1" fill="#f3ca52" d="M359.5 687.5c8.971 6.157 17.971 12.323 27 18.5 10.363 5.514 20.697 11.014 31 16.5-4.911-1.129-9.578-2.796-14-5-1.647-1.826-3.647-3.16-6-4-1.109-.057-2.109-.39-3-1-1.85-2.072-4.183-3.405-7-4-6.395-4.713-13.061-9.213-20-13.5-3.006-2.301-5.672-4.801-8-7.5Z"/><path style="opacity:1" fill="#f0c955" d="M658.5 693.5c-4.781 4.445-10.115 8.111-16 11 4.731-4.373 10.064-8.04 16-11Z"/><path style="opacity:1" fill="#fffde2" d="M658.5 693.5h2v3c-3.993-.5-5.66 1-5 4.5-6.051 1.842-11.718 4.342-17 7.5 1.639-.973 2.973-2.306 4-4 5.885-2.889 11.219-6.555 16-11Z"/><path style="opacity:1" fill="#eec74c" d="M261.5 590.5c.833 40.498 1.333 81.165 1.5 122 .198 1.882.698 3.548 1.5 5 .667 3.333 1.333 6.667 2 10-2.559-3.5-4.059-7.5-4.5-12-1.002-38.994-1.502-77.994-1.5-117 .973-2.448 1.306-5.115 1-8Z"/><path style="opacity:1" fill="#f1c952" d="M642.5 704.5c-1.027 1.694-2.361 3.027-4 4-2.831.579-5.164 1.912-7 4-1.333.333-2.667.667-4 1 4.495-3.751 9.495-6.751 15-9Z"/><path style="opacity:1" fill="#fffcd1" d="M387.5 708.5c2.817.595 5.15 1.928 7 4-1.052.149-2.052-.017-3-.5-1.819-.74-3.152-1.907-4-3.5Z"/><path style="opacity:1" fill="#fffbcf" d="M631.5 712.5c-2.201 2.819-5.201 4.485-9 5 .333-.667.667-1.333 1-2 1.88.271 3.213-.396 4-2 1.333-.333 2.667-.667 4-1Z"/><path style="opacity:1" fill="#f1c94d" d="M627.5 713.5c-.787 1.604-2.12 2.271-4 2 1.014-1.174 2.347-1.84 4-2Z"/><path style="opacity:1" fill="#fef6bf" d="M397.5 713.5c2.353.84 4.353 2.174 6 4-2.698-.345-4.698-1.678-6-4Z"/><path style="opacity:1" fill="#f2c74b" d="M623.5 715.5c-.333.667-.667 1.333-1 2-3.95 1.092-7.617 2.759-11 5-1.935.65-3.935.983-6 1 5.726-3.195 11.726-5.861 18-8Z"/><path style="opacity:1" fill="#fffcd1" d="M264.5 717.5c1.961 3.567 3.295 7.567 4 12l-2-2c-.667-3.333-1.333-6.667-2-10Z"/><path style="opacity:1" fill="#f4c946" d="M605.5 723.5c-.333.667-.667 1.333-1 2h-4c1.28-1.431 2.947-2.098 5-2Z"/><path style="opacity:1" fill="#fef7c0" d="M611.5 722.5c-1.895 1.741-4.228 2.741-7 3 .333-.667.667-1.333 1-2 2.065-.017 4.065-.35 6-1Z"/><path style="opacity:1" fill="#fffcce" d="M759.5 719.5c.105 3.758-.895 7.092-3 10 .104-3.707 1.104-7.04 3-10Z"/><path style="opacity:1" fill="#f4ce59" d="M761.5 692.5h1c.166 9.006 0 18.006-.5 27-7.336 24.168-23.503 38.168-48.5 42v-1c4.933-.76 9.599-2.093 14-4 12.889-5.556 22.555-14.556 29-27 2.105-2.908 3.105-6.242 3-10 .934-1.068 1.268-2.401 1-4 .992-7.482 1.325-15.148 1-23Z"/><path style="opacity:1" fill="#f1c749" d="M600.5 725.5c-1.135 1.713-2.802 2.38-5 2 1.43-1.037 3.097-1.704 5-2Z"/><path style="opacity:1" fill="#fffcd4" d="M242.5 722.5c.754 4.178 2.087 8.178 4 12 .378 2.421 1.045 4.754 2 7-1.359-.507-2.359-1.507-3-3-2.449-4.996-3.449-10.329-3-16Z"/><path style="opacity:1" fill="#fffcdf" d="M424.5 726.5c6.127 1.82 12.127 3.82 18 6-3.288.427-6.288-.24-9-2-.667.333-1.333.667-2 1-2.377-1.79-4.71-3.457-7-5Z"/><path style="opacity:1" fill="#f5cf61" d="M595.5 727.5v1c-4.782 2.091-9.782 3.424-15 4 4.816-1.892 9.816-3.558 15-5Z"/><path style="opacity:1" fill="#fffcd8" d="M595.5 728.5c-.848 1.593-2.181 2.76-4 3.5-4.743.529-9.409 1.362-14 2.5 1-.667 2-1.333 3-2 5.218-.576 10.218-1.909 15-4Z"/><path style="opacity:1" fill="#f3ca53" d="M417.5 722.5c53.197 20.135 107.53 23.468 163 10-1 .667-2 1.333-3 2-13.157 3.121-26.49 5.287-40 6.5-18.679.705-37.346.539-56-.5h-2c-2.107-.968-4.441-1.302-7-1-2.015-1.424-4.348-2.09-7-2h-3c-6.739-1.181-13.406-2.848-20-5-5.873-2.18-11.873-4.18-18-6-2.464-1.067-4.797-2.4-7-4Z"/><path style="opacity:1" fill="#fffed0" d="M812.5 723.5v8c-.667 1.667-1.333 3.333-2 5-.344-4.622.323-8.955 2-13Z"/><path style="opacity:1" fill="#f3ce5c" d="m266.5 727.5 2 2c1.789 4.067 4.122 7.734 7 11 .667 1 1.333 2 2 3s1.333 2 2 3c-6.664-4.677-10.997-11.01-13-19Z"/><path style="opacity:1" fill="#fffddb" d="M442.5 732.5c6.594 2.152 13.261 3.819 20 5-5.055-.228-10.055-.895-15-2-2.044-.565-3.71-1.565-5-3Z"/><path style="opacity:1" fill="#f1c94e" d="M782.5 716.5v7c-.791 2.615-1.457 5.282-2 8-1.846 3.04-3.179 6.373-4 10-2.914 4.158-5.581 8.491-8 13-5.36 5.028-10.693 10.028-16 15-4.213 2.606-8.547 4.939-13 7-4.763 1.404-9.429 2.738-14 4h-6c-12.511.329-24.845-.005-37-1 15.706.382 31.372-.118 47-1.5 30.087-9.912 47.753-30.412 53-61.5Z"/><path style="opacity:1" fill="#f0c54f" d="M246.5 734.5c3.042 4.788 5.709 9.788 8 15-.667-.333-1.333-.667-2-1-1.084-2.504-2.417-4.837-4-7-.955-2.246-1.622-4.579-2-7Z"/><path style="opacity:1" fill="#fffdd5" d="M268.5 729.5c3.247 3.052 5.58 6.719 7 11-2.878-3.266-5.211-6.933-7-11Z"/><path style="opacity:1" fill="#fffedd" d="M780.5 731.5c.75 4.275-.583 7.609-4 10 .821-3.627 2.154-6.96 4-10Z"/><path style="opacity:1" fill="#f4d45c" d="M213.5 735.5c1.297 1.871 2.297 3.871 3 6 .493 2.306.826 4.639 1 7-2.089-4.001-3.422-8.335-4-13Z"/><path style="opacity:1" fill="#faed9a" d="M465.5 738.5v-1c2.652-.09 4.985.576 7 2-2.361-.174-4.694-.507-7-1Z"/><path style="opacity:1" fill="#fffed9" d="M465.5 738.5c2.306.493 4.639.826 7 1 2.559-.302 4.893.032 7 1-4.014.166-8.014-.001-12-.5-.916-.278-1.582-.778-2-1.5Z"/><path style="opacity:1" fill="#f4d56b" d="M812.5 731.5c-.522 8.773-3.189 16.773-8 24-.16-1.699.006-3.366.5-5 2.902-4.2 4.736-8.866 5.5-14 .667-1.667 1.333-3.333 2-5Z"/><path style="opacity:1" fill="#fffdd1" d="M577.5 734.5c-2.424 1.483-5.091 2.65-8 3.5-8.845 1.749-17.845 3.082-27 4-18 .667-36 .667-54 0-2.536-.186-4.869-.686-7-1.5 18.654 1.039 37.321 1.205 56 .5 13.51-1.213 26.843-3.379 40-6.5Z"/><path style="opacity:1" fill="#fffbdb" d="M277.5 743.5c1.586.913 3.086.913 4.5 0 .483.948.649 1.948.5 3h3c-.108 2.014.558 3.68 2 5-2.667-1.667-5.333-3.333-8-5-.667-1-1.333-2-2-3Z"/><path style="opacity:1" fill="#f4cc58" d="M279.5 746.5c2.667 1.667 5.333 3.333 8 5 1.074 1.385 2.407 2.551 4 3.5 6.394 2.689 13.061 4.523 20 5.5v1c-4.009-.358-8.009-.858-12-1.5-2.852-1.591-5.852-2.924-9-4-4.501-2.343-8.167-5.51-11-9.5Z"/><path style="opacity:1" fill="#fffab9" d="M252.5 748.5c.667.333 1.333.667 2 1v2c-1.406-.473-2.073-1.473-2-3Z"/><path style="opacity:1" fill="#fef8be" d="M216.5 741.5c1.916 5.201 3.916 10.534 6 16-.643-1.576-1.643-2.91-3-4-1.037-1.43-1.704-3.097-2-5-.174-2.361-.507-4.694-1-7Z"/><path style="opacity:1" fill="#ebc74a" d="M254.5 749.5c1.406.473 2.073 1.473 2 3-.667-.333-1.333-.667-2-1v-2Z"/><path style="opacity:1" fill="#f4cb55" d="M256.5 752.5c2.69 1.693 4.69 4.027 6 7-1.333-1-2.667-2-4-3-1.1-1.105-1.767-2.438-2-4Z"/><path style="opacity:1" fill="#fff8c1" d="M258.5 756.5c1.333 1 2.667 2 4 3 1.667 2 3.333 4 5 6-4-2-7-5-9-9Z"/><path style="opacity:1" fill="#f6d862" d="M219.5 753.5c1.357 1.09 2.357 2.424 3 4 1.23 1.797 1.896 3.797 2 6-2.501-2.857-4.168-6.191-5-10Z"/><path style="opacity:1" fill="#fffee4" d="M287.5 751.5c2.344 1.172 4.677 1.172 7 0 .886.825 1.219 1.825 1 3 1.373.157 2.707-.01 4-.5-1.771-.535-2.104-1.369-1-2.5 1.333 1.333 2.667 1.333 4 0 .992 2.481-.008 3.981-3 4.5 1.756.202 3.422.702 5 1.5 69.167.333 138.333.667 207.5 1 71.877-.026 143.711-.692 215.5-2-4.401 1.907-9.067 3.24-14 4h-402c-6.939-.977-13.606-2.811-20-5.5-1.593-.949-2.926-2.115-4-3.5Z"/><path style="opacity:1" fill="#f1cb58" d="M804.5 755.5c.271 1.88-.396 3.213-2 4 .16-1.653.826-2.986 2-4Z"/><path style="opacity:1" fill="#f5d068" d="M311.5 760.5h332c2 .667 4 1.333 6 2-112.815.224-225.482-.109-338-1v-1Z"/><path style="opacity:1" fill="#f3cc5f" d="M643.5 760.5h70v1c-21.16.997-42.493 1.331-64 1-2-.667-4-1.333-6-2Z"/><path style="opacity:1" fill="#fffcd2" d="M768.5 754.5c-3.398 4.906-7.398 9.406-12 13.5-1.245.791-2.578 1.291-4 1.5 5.307-4.972 10.64-9.972 16-15Z"/><path style="opacity:1" fill="#f6d668" d="M224.5 763.5c2.4 1.796 4.067 4.13 5 7-2.4-1.796-4.067-4.13-5-7Z"/><path style="opacity:1" fill="#fae589" d="M800.5 763.5c-1.029 3.391-3.029 6.057-6 8 .813-3.489 2.813-6.156 6-8Z"/><path style="opacity:1" fill="#f6d569" d="M229.5 770.5c5.639 5.974 11.305 11.974 17 18-7.046-4.713-12.713-10.713-17-18Z"/><path style="opacity:1" fill="#f4c955" d="M262.5 759.5c6.727 5.395 13.727 10.395 21 15-5.91-1.956-11.244-4.956-16-9-1.667-2-3.333-4-5-6Z"/><path style="opacity:1" fill="#f0c350" d="M283.5 774.5c6.407 1.347 12.741 3.013 19 5 .586-.209 1.086-.543 1.5-1 27.598.663 55.098 1.329 82.5 2h-81c-5.109.07-10.109-.597-15-2-2.464-1.067-4.797-2.4-7-4Z"/><path style="opacity:1" fill="#fffbd5" d="M739.5 776.5c-1.237 1.597-2.904 2.763-5 3.5-2.982.498-5.982.665-9 .5 4.571-1.262 9.237-2.596 14-4Z"/><path style="opacity:1" fill="#fbdd6e" d="M682.5 779.5c12.155.995 24.489 1.329 37 1-138 1.333-276 1.333-414 0h81c98.681-.908 197.348-1.241 296-1Z"/><path style="opacity:1" fill="#fffeda" d="M290.5 778.5c4.891 1.403 9.891 2.07 15 2 138 1.333 276 1.333 414 0h6c-.418.722-1.084 1.222-2 1.5-142.667.667-285.333.667-428 0-1.733-1.189-3.4-2.356-5-3.5Z"/><path style="opacity:1" fill="#f9e384" d="M793.5 773.5c-3.688 5.688-8.355 10.355-14 14 3.667-5.667 8.333-10.333 14-14Z"/><path style="opacity:1" fill="#f9de7e" d="M246.5 788.5c1.904.238 3.238 1.238 4 3-1.904-.238-3.238-1.238-4-3Z"/><path style="opacity:1" fill="#f6d86d" d="M250.5 791.5c1.904.238 3.238 1.238 4 3-1.904-.238-3.238-1.238-4-3Z"/><path style="opacity:1" fill="#fefed1" d="M771.5 792.5c-1.194.772-2.194 1.772-3 3-1.527-.073-2.527.594-3 2h-1c-1.109.057-2.109.39-3 1 2.632-2.99 5.965-4.99 10-6Z"/><path style="opacity:1" fill="#f3d365" d="M777.5 789.5c-2.307 1.477-4.14 3.477-5.5 6-.986-.671-2.153-.671-3.5 0 .806-1.228 1.806-2.228 3-3 1.681-1.508 3.681-2.508 6-3Z"/><path style="opacity:1" fill="#f0d064" d="M256.5 795.5c1.527-.073 2.527.594 3 2-1.527.073-2.527-.594-3-2Z"/><path style="opacity:1" fill="#ebcc5f" d="M768.5 795.5c-.473 1.406-1.473 2.073-3 2 .473-1.406 1.473-2.073 3-2Z"/><path style="opacity:1" fill="#f1c053" d="M259.5 797.5c.992-.172 1.658.162 2 1-2.338 1.511-3.004 1.177-2-1Z"/><path style="opacity:1" fill="#f6dc78" d="M764.5 797.5c-2.844 2.479-6.178 4.146-10 5 1.836-2.088 4.169-3.421 7-4 .891-.61 1.891-.943 3-1Z"/><path style="opacity:1" fill="#eec751" d="M263.5 799.5c1.333.333 2.667.667 4 1v1c-1.88.271-3.213-.396-4-2Z"/><path style="opacity:1" fill="#f5dd7e" d="M267.5 801.5c2.398-.241 4.398.426 6 2-2.398.241-4.398-.426-6-2Z"/><path style="opacity:1" fill="#fffddb" d="M267.5 801.5v-1c8.884 2.112 17.55 4.445 26 7h-5c-1.935-.65-3.935-.983-6-1-.709-.904-1.709-1.237-3-1h-1c-1.135-1.713-2.802-2.38-5-2-1.602-1.574-3.602-2.241-6-2Z"/><path style="opacity:1" fill="#fbe79b" d="M754.5 802.5c-5.253 2.734-10.92 4.401-17 5v-1c.111-.617.444-1.117 1-1.5 5.508-.367 10.841-1.2 16-2.5Z"/><path style="opacity:1" fill="#f6e07c" d="M273.5 803.5c2.198-.38 3.865.287 5 2-2.053.098-3.72-.569-5-2Z"/><path style="opacity:1" fill="#fac428" d="M265.5 805.5c.789.283 1.456.783 2 1.5-1.316.528-1.983.028-2-1.5Z"/><path style="opacity:1" fill="#f2c24c" d="M279.5 805.5c1.291-.237 2.291.096 3 1-1.25.077-2.083.744-2.5 2-.483-.948-.649-1.948-.5-3Z"/><path style="opacity:1" fill="#fcc328" d="M756.5 805.5c.789.283 1.456.783 2 1.5-1.316.528-1.983.028-2-1.5Z"/><path style="opacity:1" fill="#fffeea" d="M737.5 806.5v1h-1c-3.045.008-6.045.341-9 1h-434v-1c148.011.321 296.011-.012 444-1Z"/><path style="opacity:1" fill="#fbc736" d="M288.5 807.5h5v1c-2.222-.322-4.056.345-5.5 2-1.795-1.219-1.628-2.219.5-3Z"/><path style="opacity:1" fill="#f1c657" d="M736.5 807.5c-2.24.764-4.573 1.598-7 2.5.951.718 1.117 1.551.5 2.5-2.102-.62-2.935-1.62-2.5-3v-1c2.955-.659 5.955-.992 9-1Z"/><path style="opacity:1" fill="#f3cc82" d="M299.5 809.5v-1h428v1c-69.951.236-139.951.403-210 .5-11.366 1.096-22.7 1.263-34 .5-3.793-.385-7.793-.385-12 0-57.314-.98-114.648-1.313-172-1Z"/><path style="opacity:1" fill="#f8be44" d="M321.5 810.5c.342.838 1.008 1.172 2 1-3.14 1.141-6.473 1.308-10 .5-1.388-.889-1.222-1.389.5-1.5 2.411.627 4.911.627 7.5 0Z"/><path style="opacity:1" fill="#fdc010" d="M321.5 810.5c22.336-.167 44.669 0 67 .5-5.48.72-10.98 1.22-16.5 1.5-16.154-.878-32.321-1.211-48.5-1-.992.172-1.658-.162-2-1Z"/><path style="opacity:1" fill="#f3b952" d="M483.5 810.5c-4 1.333-8 1.333-12 0 4.207-.385 8.207-.385 12 0Z"/><path style="opacity:1" fill="#f7bf47" d="M294.5 808.5h5v1c2.469.817 5.135 1.317 8 1.5-2 .333-4 .667-6 1-.691 1.067-1.191 2.234-1.5 3.5-.949-3.878-2.115-3.878-3.5 0-.903-2.357-2.57-3.857-5-4.5 1.619-.236 2.619-1.069 3-2.5Z"/><path style="opacity:1" fill="#edb66a" d="M643.5 810.5c1.847-.266 2.514.068 2 1-1.912 1.656-3.912 1.989-6 1 1.449-.672 2.782-1.339 4-2Z"/><path style="opacity:1" fill="#fdc10c" d="M712.5 811.5c2.357-.163 4.69.003 7 .5-2.684 2.145-5.017 1.978-7-.5Z"/><path style="opacity:1" fill="#f6c044" d="M728.5 813.5c1.273.577 1.273 1.243 0 2-.963-.47-.963-1.137 0-2Z"/><path style="opacity:1" fill="#e8b677" d="M679.5 823.5h8v4h-8v-4Z"/></svg>