<?xml version="1.0" standalone="no"?>
<!DOCTYPE svg PUBLIC "-//W3C//DTD SVG 20010904//EN"
 "http://www.w3.org/TR/2001/REC-SVG-20010904/DTD/svg10.dtd">
<svg version="1.0" xmlns="http://www.w3.org/2000/svg"
 width="500.000000pt" height="250.000000pt" viewBox="0 0 500.000000 250.000000"
 preserveAspectRatio="xMidYMid meet">

<g transform="translate(0.000000,250.000000) scale(0.100000,-0.100000)"
fill="#000000" stroke="none">
<path d="M1566 1453 c-4 -17 -17 -35 -29 -40 l-22 -10 22 -7 c12 -4 26 -19 31
-34 l10 -27 7 27 c4 17 16 29 33 33 l27 7 -27 10 c-16 5 -28 17 -28 26 0 10
-4 23 -9 31 -7 10 -11 6 -15 -16z"/>
<path d="M2362 1468 c-28 -28 -3 -72 39 -66 30 4 47 33 33 56 -14 21 -55 27
-72 10z"/>
<path d="M3225 1455 c-22 -8 -41 -15 -42 -15 -9 -1 -43 -73 -43 -93 0 -63 42
-101 140 -126 72 -19 90 -31 90 -61 0 -37 -23 -53 -75 -53 -46 0 -85 23 -85
50 0 9 -13 13 -41 13 -41 0 -41 0 -35 -32 16 -81 117 -124 220 -94 70 21 96
52 96 116 0 42 -4 52 -35 79 -30 26 -115 61 -150 61 -15 0 -45 33 -45 48 0 25
40 52 76 52 27 0 42 -7 62 -30 29 -33 78 -41 88 -16 10 25 -28 75 -71 96 -48
23 -94 25 -150 5z"/>
<path d="M2010 1250 l0 -210 35 0 35 0 0 70 0 70 58 0 c120 1 178 55 170 158
-4 48 -10 60 -41 89 l-37 33 -110 0 -110 0 0 -210z m200 125 c26 -24 27 -78 0
-105 -15 -15 -33 -20 -75 -20 l-55 0 0 76 0 76 55 -4 c34 -3 62 -12 75 -23z"/>
<path d="M2830 1250 l0 -210 35 0 35 0 0 49 c0 32 6 55 16 66 15 14 20 10 62
-50 45 -62 49 -65 90 -65 23 0 42 4 42 9 0 4 -25 41 -55 82 -30 41 -55 80 -55
87 0 8 25 42 56 75 l56 62 -44 3 c-42 3 -45 1 -100 -60 l-58 -63 0 66 c0 36
-3 87 -6 113 -6 44 -8 46 -40 46 l-34 0 0 -210z"/>
<path d="M3820 1260 c0 -110 0 -203 0 -207 0 -5 15 -9 35 -11 l35 -3 0 210 0
211 -35 0 -35 0 0 -200z"/>
<path d="M1104 1346 c-3 -7 -4 -40 -2 -72 3 -51 6 -59 23 -59 18 0 20 8 23 73
3 67 1 72 -18 72 -11 0 -23 -6 -26 -14z"/>
<path d="M1382 1348 c-18 -18 -16 -123 3 -138 26 -22 36 2 33 75 -3 68 -13 86
-36 63z"/>
<path d="M2360 1200 l0 -160 35 0 35 0 0 160 0 160 -35 0 -35 0 0 -160z"/>
<path d="M2490 1200 l0 -160 40 0 39 0 3 111 c3 109 4 112 31 133 26 19 30 19
55 5 26 -14 27 -17 32 -129 l5 -115 38 -3 37 -3 0 121 c0 163 -19 200 -105
200 -37 0 -74 -14 -87 -34 -5 -6 -8 -1 -8 12 0 19 -5 22 -40 22 l-40 0 0 -160z"/>
<path d="M3553 1345 c-29 -12 -53 -41 -53 -63 0 -5 14 -12 31 -16 22 -4 36 -1
51 14 37 35 98 21 98 -21 0 -18 -10 -21 -99 -35 -58 -8 -91 -41 -91 -89 0 -50
15 -74 57 -91 39 -17 87 -11 114 13 14 12 17 12 22 -2 4 -9 19 -15 42 -15 l35
0 0 119 c0 66 -4 131 -10 146 -19 49 -126 71 -197 40z m125 -192 c-2 -28 -10
-41 -29 -52 -48 -27 -107 8 -82 48 8 13 70 37 106 40 5 1 7 -16 5 -36z"/>
<path d="M4030 1353 c-52 -19 -90 -83 -90 -153 0 -116 57 -165 189 -161 23 1
43 11 67 35 19 19 34 38 34 44 0 5 -16 12 -35 14 -25 3 -40 -1 -52 -14 -16
-18 -57 -24 -88 -12 -18 7 -47 58 -38 68 4 3 53 6 110 6 l103 0 0 40 c0 84
-57 141 -140 139 -25 0 -52 -3 -60 -6z m110 -73 c39 -39 27 -50 -54 -50 -70 0
-74 1 -69 20 13 48 87 66 123 30z"/>
<path d="M947 1272 c-40 -44 -6 -106 54 -100 26 2 37 10 48 32 12 25 11 31 -6
55 -25 33 -72 40 -96 13z"/>
<path d="M1487 1272 c-10 -10 -17 -30 -17 -45 0 -38 26 -59 69 -55 81 7 72
117 -10 118 -14 0 -33 -8 -42 -18z"/>
<path d="M1120 1096 c0 -21 51 -46 109 -53 53 -6 151 17 170 41 18 22 -2 28
-40 12 -77 -32 -130 -30 -221 9 -13 5 -18 3 -18 -9z"/>
</g>
</svg>
